#VRML V2.0 utf8
# 3D model generated by easyeda2kicad.py (https://github.com/uPesy/easyeda2kicad.py)

Shape{
    appearance Appearance {
        material  Material 	{
            diffuseColor 0.7529411764705882 0.7529411764705882 0.7529411764705882
            specularColor 0.3764705882352941 0.3764705882352941 0.3764705882352941
            ambientIntensity 0.7529
            transparency 0.0
            shininess 0.5
        }
    }
    geometry IndexedFaceSet {
        ccw TRUE
        solid FALSE
        coord DEF co Coordinate {
            point [
                0.6378 -0.6402 0.315, 0.6378 -0.8055 0.315, 0.6378 -0.6402 0.4921, 0.6378 -0.807 0.3225, 0.6378 -0.8843 0.3346, 0.6378 -0.9039 0.3543, 0.6378 -0.8252 0.3346, 0.6378 -0.9039 0.4921, 0.6378 -0.8177 0.3331, 0.6378 -0.8113 0.3289
            ]
        }
        coordIndex [
            0,1,2,-1,2,1,3,-1,4,5,6,-1,6,5,7,-1,6,7,8,-1,8,7,2,-1,8,2,9,-1,9,2,3,-1,
        ]
    }
}
Shape{
    appearance Appearance {
        material  Material 	{
            diffuseColor 0.25098039215686274 0.25098039215686274 0.25098039215686274
            specularColor 0.12549019607843137 0.12549019607843137 0.12549019607843137
            ambientIntensity 0.251
            transparency 0.0
            shininess 0.5
        }
    }
    geometry IndexedFaceSet {
        ccw TRUE
        solid FALSE
        coord DEF co Coordinate {
            point [
                0.7165 -0.6402 0.315, 0.6102 -0.6323 0.315, 0.6378 -0.6402 0.315, 0.6102 -0.6776 0.315, 0.6378 -0.8055 0.315, 0.5826 -0.6776 0.315, 0.5826 -0.7366 0.315, 0.6102 -0.7366 0.315, 0.6102 -0.9709 0.315, 0.7165 -0.8055 0.315, 0.8267 -0.9709 0.315, 0.8267 -0.6323 0.315
            ]
        }
        coordIndex [
            0,1,2,-1,2,1,3,-1,2,3,4,-1,5,6,3,-1,3,6,7,-1,3,7,4,-1,4,7,8,-1,4,8,9,-1,9,8,10,-1,9,10,0,-1,0,10,11,-1,0,11,1,-1,
        ]
    }
}
Shape{
    appearance Appearance {
        material  Material 	{
            diffuseColor 0.7529411764705882 0.7529411764705882 0.7529411764705882
            specularColor 0.3764705882352941 0.3764705882352941 0.3764705882352941
            ambientIntensity 0.7529
            transparency 0.0
            shininess 0.5
        }
    }
    geometry IndexedFaceSet {
        ccw TRUE
        solid FALSE
        coord DEF co Coordinate {
            point [
                0.7165 -0.8252 0.3346, 0.6378 -0.8252 0.3346, 0.7165 -0.8177 0.3331, 0.6378 -0.8177 0.3331, 0.7165 -0.8113 0.3289, 0.6378 -0.8113 0.3289, 0.7165 -0.807 0.3225, 0.6378 -0.807 0.3225, 0.7165 -0.8055 0.315, 0.6378 -0.8055 0.315, 0.7165 -0.8843 0.3346, 0.6378 -0.8843 0.3346, 0.7165 -0.9039 0.3543, 0.6378 -0.9039 0.3543, 0.7165 -0.9039 0.4921, 0.6378 -0.9039 0.4921, 0.7165 -0.6402 0.4921, 0.6378 -0.6402 0.4921, 0.7165 -0.6402 0.315, 0.6378 -0.6402 0.315
            ]
        }
        coordIndex [
            0,1,2,-1,2,1,3,-1,2,3,4,-1,4,3,5,-1,4,5,6,-1,6,5,7,-1,6,7,8,-1,8,7,9,-1,10,11,0,-1,0,11,1,-1,12,13,10,-1,10,13,11,-1,14,15,12,-1,12,15,13,-1,16,17,14,-1,14,17,15,-1,16,18,17,-1,17,18,19,-1,8,18,6,-1,6,18,16,-1,6,16,4,-1,12,10,14,-1,14,10,0,-1,14,0,16,-1,16,0,2,-1,16,2,4,-1,
        ]
    }
}
Shape{
    appearance Appearance {
        material  Material 	{
            diffuseColor 0.25098039215686274 0.25098039215686274 0.25098039215686274
            specularColor 0.12549019607843137 0.12549019607843137 0.12549019607843137
            ambientIntensity 0.251
            transparency 0.0
            shininess 0.5
        }
    }
    geometry IndexedFaceSet {
        ccw TRUE
        solid FALSE
        coord DEF co Coordinate {
            point [
                0.8267 0.5173 0.0591, 0.8267 0.6236 0.0591, 0.8267 0.6472 0.0827, 0.8267 0.8008 0.4409, 0.8267 0.8008 0.5709, 0.8267 0.6472 0.4409, 0.8267 -0.6126 0.5709, 0.8267 -0.6323 0.315, 0.8267 -0.9709 0.315, 0.8267 -0.9709 0.0591, 0.8267 -0.6165 0.0591, 0.8267 -0.5772 0.0197, 0.8267 0.4779 0.0197, 0.6102 -0.6171 0.5118, 0.6102 -0.6323 0.315, 0.6549 -0.6171 0.5118, 0.6889 -0.6126 0.5709, 0.6102 -0.6776 0.315, 0.6102 -0.6776 0.5118, 0.6549 -0.5378 0.5118, 0.5826 -0.5378 0.5118, 0.5826 -0.6776 0.5118, 0.5826 -0.6776 0.315, 0.5826 -0.7366 0.315, 0.5826 -0.7366 0.5118, 0.5118 -0.5378 0.4409, 0.5118 -0.9709 0.4409, 0.5826 -0.9709 0.5118, 0.6102 -0.7366 0.5118, 0.6102 -0.9709 0.5118, 0.6102 -0.9709 0.315, 0.5512 -0.9709 0.0591, 0.5118 -0.9709 0.0984, 0.3543 -0.9709 0.1024, 0.2952 -0.9709 0.1024, 0.3543 -0.9709 0.0984, 0.2952 -0.9709 0.0197, 0.5118 -0.9709 0.0197, 0.6378 -0.8134 0.0591, 0.6378 -0.6402 0.0591, 0.5512 -0.6165 0.0591, 0.7165 -0.6402 0.0591, 0.7165 -0.8134 0.0591
            ]
        }
        coordIndex [
            0,1,2,-1,3,4,5,-1,5,4,6,-1,5,6,7,-1,8,9,7,-1,7,9,10,-1,7,10,11,-1,11,12,7,-1,7,12,0,-1,7,0,5,-1,5,0,2,-1,13,14,15,-1,15,14,7,-1,15,7,16,-1,16,7,6,-1,14,13,17,-1,17,13,18,-1,15,19,13,-1,13,19,20,-1,13,20,18,-1,18,20,21,-1,17,18,22,-1,22,18,21,-1,22,21,23,-1,23,21,24,-1,25,26,27,-1,27,24,25,-1,25,24,21,-1,25,21,20,-1,24,27,28,-1,28,27,29,-1,29,27,30,-1,30,27,26,-1,9,8,31,-1,31,8,30,-1,31,30,32,-1,32,30,26,-1,33,34,35,-1,35,34,36,-1,35,36,32,-1,32,36,37,-1,32,37,31,-1,38,31,39,-1,39,31,40,-1,39,40,41,-1,41,40,10,-1,41,10,42,-1,42,10,9,-1,42,9,38,-1,38,9,31,-1,
        ]
    }
}
Shape{
    appearance Appearance {
        material  Material 	{
            diffuseColor 0.7529411764705882 0.7529411764705882 0.7529411764705882
            specularColor 0.3764705882352941 0.3764705882352941 0.3764705882352941
            ambientIntensity 0.7529
            transparency 0.0
            shininess 0.5
        }
    }
    geometry IndexedFaceSet {
        ccw TRUE
        solid FALSE
        coord DEF co Coordinate {
            point [
                0.6378 -0.8134 0.0, 0.6378 -0.8134 0.0591, 0.6378 -0.6402 0.0, 0.6378 -0.6402 0.0591, 0.7165 -0.8134 0.0, 0.7165 -0.8134 0.0591, 0.7165 -0.6402 0.0, 0.7165 -0.6402 0.0591
            ]
        }
        coordIndex [
            0,1,2,-1,2,1,3,-1,4,5,0,-1,0,5,1,-1,6,7,4,-1,4,7,5,-1,2,3,6,-1,6,3,7,-1,4,0,6,-1,6,0,2,-1,
        ]
    }
}
Shape{
    appearance Appearance {
        material  Material 	{
            diffuseColor 0.25098039215686274 0.25098039215686274 0.25098039215686274
            specularColor 0.12549019607843137 0.12549019607843137 0.12549019607843137
            ambientIntensity 0.251
            transparency 0.0
            shininess 0.5
        }
    }
    geometry IndexedFaceSet {
        ccw TRUE
        solid FALSE
        coord DEF co Coordinate {
            point [
                0.5512 -0.6165 0.0591, 0.5118 -0.5772 0.0197, 0.8267 -0.6165 0.0591, 0.8267 -0.5772 0.0197, -0.6496 -0.5378 0.0197, -0.6496 -0.3213 0.0197, -0.5512 -0.3213 0.0197, -0.5512 -0.1244 0.0197, -0.6496 -0.1244 0.0197, -0.6496 0.0803 0.0197, 0.748 0.0803 0.0197, 0.8267 0.4779 0.0197, 0.6496 0.0803 0.0197, -0.0827 -0.7032 0.0197, -0.2953 -0.9709 0.0197, -0.5118 -0.9709 0.0197, 0.5512 -0.3213 0.0197, 0.6496 -0.3213 0.0197, 0.6496 -0.5378 0.0197, 0.5118 -0.9709 0.0197, 0.2952 -0.9709 0.0197, 0.0826 -0.7032 0.0197, 0.6496 -0.1244 0.0197, 0.5512 -0.1244 0.0197, -0.8268 0.4779 0.0197, -0.7481 0.0803 0.0197, -0.8268 -0.5772 0.0197, -0.7481 -0.5378 0.0197, -0.5118 -0.5772 0.0197, 0.748 -0.5378 0.0197, 0.5512 -0.3213 0.0984, 0.5512 -0.1244 0.0984, 0.6496 -0.3213 0.0984, 0.6496 -0.5378 0.0984, 0.5826 -0.5378 0.5118, 0.6549 -0.5378 0.5118, 0.5118 -0.5378 0.4409, 0.5118 -0.5378 0.0984, 0.6889 -0.5378 0.5709, 0.7362 -0.5378 0.5709, 0.6653 -0.5378 0.4646, 0.6653 -0.5378 0.3976, 0.748 -0.5378 0.3499, 0.5118 -0.9709 0.0984, 0.5118 -0.9709 0.4409, 0.2992 0.4858 0.0984, 0.2992 0.159 0.0984, 0.6456 0.4858 0.0984, 0.3543 0.159 0.0984, 0.3543 -0.9709 0.0984, 0.6456 0.2496 0.0984, 0.5078 0.2496 0.0984, 0.5078 0.0803 0.0984, 0.6496 0.0803 0.0984, 0.6496 -0.1244 0.0984, 0.2957 0.159 0.1024, 0.2578 0.4858 0.1457, 0.2578 0.159 0.1457, 0.2756 0.4858 0.1457, 0.2756 0.1276 0.1457, 0.2145 0.159 0.1457, 0.1968 0.1276 0.1457, 0.2145 0.4858 0.1457, 0.1968 0.4858 0.1457
            ]
        }
        coordIndex [
            0,1,2,-1,2,1,3,-1,4,5,6,-1,7,8,9,-1,3,10,11,-1,11,10,12,-1,13,14,15,-1,16,17,18,-1,19,20,1,-1,1,20,21,-1,22,23,12,-1,12,23,7,-1,12,7,11,-1,11,7,9,-1,11,9,24,-1,24,9,25,-1,24,25,26,-1,26,25,27,-1,26,27,28,-1,28,27,4,-1,28,4,23,-1,23,4,6,-1,23,6,7,-1,15,28,13,-1,13,28,23,-1,13,23,21,-1,21,23,16,-1,21,16,1,-1,1,16,18,-1,1,18,3,-1,3,18,29,-1,3,29,10,-1,30,16,31,-1,31,16,23,-1,32,17,30,-1,30,17,16,-1,18,17,33,-1,33,17,32,-1,34,35,36,-1,36,35,33,-1,36,33,37,-1,35,38,39,-1,39,40,35,-1,35,40,41,-1,35,41,33,-1,33,41,42,-1,33,42,18,-1,18,42,29,-1,43,44,37,-1,37,44,36,-1,45,46,47,-1,47,46,48,-1,48,49,37,-1,37,49,43,-1,31,48,30,-1,30,48,37,-1,30,37,32,-1,32,37,33,-1,50,47,51,-1,51,47,48,-1,51,48,52,-1,52,48,31,-1,52,31,53,-1,53,31,54,-1,46,45,55,-1,55,45,56,-1,55,56,57,-1,56,58,57,-1,57,58,59,-1,57,59,60,-1,60,59,61,-1,60,61,62,-1,62,61,63,-1,
        ]
    }
}
Shape{
    appearance Appearance {
        material  Material 	{
            diffuseColor 1.0 1.0 0.5019607843137255
            specularColor 0.5019607843137255 0.5019607843137255 0.25098039215686274
            ambientIntensity 0.9432
            transparency 0.0
            shininess 0.5
        }
    }
    geometry IndexedFaceSet {
        ccw TRUE
        solid FALSE
        coord DEF co Coordinate {
            point [
                0.2441 0.0646 0.2087, 0.2283 0.0646 0.2087, 0.2756 0.0961 0.1772, 0.1968 0.0961 0.1772, 0.2756 0.1276 0.1457, 0.1968 0.1276 0.1457, 0.2756 0.0961 0.3504, 0.2441 0.0646 0.3189, 0.2283 0.0646 0.3189, 0.1968 0.0961 0.3504, 0.1968 0.1039 0.3583, 0.2756 0.1039 0.3583, 0.2204 0.1276 0.3819, 0.2519 0.1276 0.3819, 0.2519 0.4858 0.3819, 0.2756 0.4858 0.3583, 0.2756 0.4858 0.1457
            ]
        }
        coordIndex [
            0,1,2,-1,2,1,3,-1,2,3,4,-1,4,3,5,-1,2,6,0,-1,0,6,7,-1,8,7,9,-1,9,7,6,-1,9,6,10,-1,10,6,11,-1,10,11,12,-1,12,11,13,-1,13,11,14,-1,14,11,15,-1,6,2,11,-1,11,2,4,-1,11,4,15,-1,15,4,16,-1,
        ]
    }
}
Shape{
    appearance Appearance {
        material  Material 	{
            diffuseColor 0.25098039215686274 0.25098039215686274 0.25098039215686274
            specularColor 0.12549019607843137 0.12549019607843137 0.12549019607843137
            ambientIntensity 0.251
            transparency 0.0
            shininess 0.5
        }
    }
    geometry IndexedFaceSet {
        ccw TRUE
        solid FALSE
        coord DEF co Coordinate {
            point [
                0.2756 0.4858 0.1457, 0.2578 0.4858 0.1457, 0.2992 0.4858 0.0984, -0.1969 0.4858 0.1457, -0.2146 0.4858 0.1457, -0.1733 0.4858 0.0984, -0.2992 0.4858 0.0984, -0.2579 0.4858 0.1457, -0.2756 0.4858 0.1457, 0.1732 0.4858 0.0984, 0.2145 0.4858 0.1457, 0.1968 0.4858 0.1457, -0.2756 0.4858 0.3583, -0.6457 0.4858 0.4921, -0.6457 0.4858 0.0984, 0.2519 0.4858 0.3819, 0.6456 0.4858 0.4921, 0.2204 0.4858 0.3819, 0.1968 0.4858 0.3583, 0.6456 0.4858 0.0984, 0.2756 0.4858 0.3583, -0.1969 0.4858 0.3583, -0.2205 0.4858 0.3819, -0.252 0.4858 0.3819
            ]
        }
        coordIndex [
            0,1,2,-1,3,4,5,-1,6,7,8,-1,9,10,11,-1,12,13,8,-1,8,13,14,-1,8,14,6,-1,15,16,17,-1,17,16,13,-1,17,13,18,-1,2,19,0,-1,0,19,16,-1,0,16,20,-1,20,16,15,-1,5,9,3,-1,3,9,11,-1,3,11,21,-1,21,11,18,-1,21,18,22,-1,22,18,13,-1,22,13,23,-1,23,13,12,-1,
        ]
    }
}
Shape{
    appearance Appearance {
        material  Material 	{
            diffuseColor 1.0 1.0 0.5019607843137255
            specularColor 0.5019607843137255 0.5019607843137255 0.25098039215686274
            ambientIntensity 0.9432
            transparency 0.0
            shininess 0.5
        }
    }
    geometry IndexedFaceSet {
        ccw TRUE
        solid FALSE
        coord DEF co Coordinate {
            point [
                0.2204 0.1276 0.3819, 0.2519 0.1276 0.3819, 0.2204 0.4858 0.3819, 0.2519 0.4858 0.3819, 0.1968 0.1039 0.3583, 0.1968 0.4858 0.3583, 0.1968 0.4858 0.1457, 0.1968 0.1276 0.1457, 0.1968 0.0961 0.3504, 0.1968 0.0961 0.1772, 0.2283 0.0646 0.3189, 0.2283 0.0646 0.2087, 0.2441 0.0646 0.2087, 0.2441 0.0646 0.3189
            ]
        }
        coordIndex [
            0,1,2,-1,2,1,3,-1,4,0,5,-1,5,0,2,-1,5,6,4,-1,4,6,7,-1,4,7,8,-1,8,7,9,-1,8,9,10,-1,10,9,11,-1,11,12,10,-1,10,12,13,-1,
        ]
    }
}
Shape{
    appearance Appearance {
        material  Material 	{
            diffuseColor 0.25098039215686274 0.25098039215686274 0.25098039215686274
            specularColor 0.12549019607843137 0.12549019607843137 0.12549019607843137
            ambientIntensity 0.251
            transparency 0.0
            shininess 0.5
        }
    }
    geometry IndexedFaceSet {
        ccw TRUE
        solid FALSE
        coord DEF co Coordinate {
            point [
                0.2145 0.159 0.1457, 0.2145 0.4858 0.1457, 0.1766 0.159 0.1024, 0.1732 0.4858 0.0984, 0.1732 0.159 0.0984, 0.2957 0.159 0.1024, 0.2578 0.159 0.1457, -0.3544 -0.9709 0.1024, -0.2953 -0.9709 0.1024, -0.3544 0.159 0.1024, -0.0827 -0.7032 0.1024, -0.2958 0.159 0.1024, 0.2952 -0.9709 0.1024, 0.3543 -0.9709 0.1024, 0.0826 -0.7032 0.1024, 0.3543 0.159 0.1024, -0.1767 0.159 0.1024, 0.3543 0.159 0.0984, 0.2992 0.159 0.0984, 0.3543 -0.9709 0.0984, 0.0826 -0.7032 0.0197, 0.2952 -0.9709 0.0197, -0.0827 -0.7032 0.0197, -0.2953 -0.9709 0.0197, -0.3544 -0.9709 0.0984, -0.5118 -0.9709 0.0197, -0.5118 -0.9709 0.0984, -0.8268 -0.9709 0.0591, -0.5512 -0.9709 0.0591, -0.8268 -0.9709 0.315, -0.6103 -0.9709 0.315, -0.5827 -0.9709 0.5118, -0.6103 -0.9709 0.5118, -0.5118 -0.9709 0.4409, -0.5512 -0.6165 0.0591, -0.5118 -0.5772 0.0197, -0.8268 -0.5772 0.0197, -0.8268 -0.6165 0.0591, -0.8268 0.8008 0.5709, -0.8268 0.8008 0.4409, -0.8268 0.6472 0.4409, -0.8268 -0.6323 0.315, -0.8268 0.6472 0.0827, -0.8268 0.6236 0.0591, -0.8268 0.5173 0.0591, -0.8268 0.4779 0.0197, -0.8268 -0.6126 0.5709, -0.689 -0.6126 0.5709, -0.6549 -0.6171 0.5118, -0.6103 -0.6171 0.5118, -0.6103 -0.6323 0.315, -0.689 -0.5378 0.5709, 0.8267 -0.6126 0.5709, 0.8267 0.8008 0.5709, 0.7244 0.1709 0.5709, 0.7244 0.5646 0.5709, -0.5866 0.0803 0.5709, -0.5866 0.1709 0.5709, -0.7363 0.0803 0.5709, -0.7244 0.1709 0.5709, 0.6889 -0.5378 0.5709, 0.6889 -0.6126 0.5709, 0.7362 -0.5378 0.5709, 0.7362 0.0803 0.5709, 0.5866 0.0803 0.5709, 0.5866 0.1709 0.5709, -0.7363 -0.5378 0.5709, -0.7244 0.5646 0.5709, -0.128 0.7614 0.5709, -0.3445 0.7614 0.5709, -0.2363 0.6039 0.5709, -0.3445 0.7614 0.5591, -0.2363 0.6039 0.5591, -0.128 0.7614 0.5591, -0.4725 0.8008 0.4409, 0.8267 0.8008 0.4409, 0.4724 0.8008 0.4409, 0.4724 0.8008 0.315, -0.4725 0.8008 0.315, 0.4724 0.7693 0.315, 0.4724 0.6472 0.4409, 0.4724 0.7693 0.2244, 0.4724 0.6472 0.2244, 0.2756 0.7693 0.315, 0.2756 0.7772 0.315, 0.1968 0.7772 0.315, -0.2756 0.7693 0.315, -0.4725 0.7693 0.315, -0.2756 0.7772 0.315, -0.1969 0.7772 0.315, -0.1969 0.7693 0.315, 0.1968 0.7693 0.315
            ]
        }
        coordIndex [
            0,1,2,-1,2,1,3,-1,2,3,4,-1,5,6,2,-1,2,6,0,-1,7,8,9,-1,9,8,10,-1,9,10,11,-1,12,13,14,-1,14,13,15,-1,15,5,14,-1,14,5,2,-1,14,2,10,-1,10,2,16,-1,10,16,11,-1,17,18,15,-1,15,18,5,-1,13,19,15,-1,15,19,17,-1,20,21,14,-1,14,21,12,-1,22,20,10,-1,10,20,14,-1,23,22,8,-1,8,22,10,-1,8,7,23,-1,23,7,24,-1,23,24,25,-1,25,24,26,-1,27,28,29,-1,29,28,30,-1,31,32,33,-1,33,32,30,-1,33,30,26,-1,26,30,28,-1,26,28,25,-1,28,34,25,-1,25,34,35,-1,36,35,37,-1,37,35,34,-1,38,39,40,-1,27,29,37,-1,37,29,41,-1,37,41,36,-1,42,43,40,-1,40,43,44,-1,45,36,44,-1,44,36,41,-1,44,41,40,-1,40,41,46,-1,40,46,38,-1,47,46,48,-1,48,46,41,-1,48,41,49,-1,49,41,50,-1,46,47,51,-1,52,53,54,-1,54,53,55,-1,56,57,58,-1,58,57,59,-1,60,61,62,-1,62,61,52,-1,62,52,63,-1,63,52,54,-1,63,54,64,-1,64,54,65,-1,51,66,46,-1,46,66,58,-1,46,58,38,-1,38,58,59,-1,38,59,67,-1,55,53,68,-1,68,53,38,-1,68,38,69,-1,69,38,67,-1,69,67,70,-1,70,67,55,-1,70,55,68,-1,71,69,72,-1,72,69,70,-1,73,68,71,-1,71,68,69,-1,72,70,73,-1,73,70,68,-1,73,71,72,-1,74,39,38,-1,53,75,76,-1,77,78,76,-1,76,78,74,-1,76,74,53,-1,53,74,38,-1,77,76,79,-1,79,76,80,-1,79,80,81,-1,81,80,82,-1,77,79,83,-1,83,84,77,-1,77,84,85,-1,77,85,78,-1,86,87,88,-1,88,87,78,-1,88,78,89,-1,89,78,85,-1,89,85,90,-1,90,85,91,-1,
        ]
    }
}
Shape{
    appearance Appearance {
        material  Material 	{
            diffuseColor 1.0 1.0 0.5019607843137255
            specularColor 0.5019607843137255 0.5019607843137255 0.25098039215686274
            ambientIntensity 0.9432
            transparency 0.0
            shininess 0.5
        }
    }
    geometry IndexedFaceSet {
        ccw TRUE
        solid FALSE
        coord DEF co Coordinate {
            point [
                0.2756 0.7693 0.2244, 0.2756 0.6472 0.2244, 0.2756 0.663 0.1969, 0.2756 0.6472 0.1969, 0.2756 0.663 0.0, 0.2756 0.8126 0.0, 0.2756 0.8126 0.0945, 0.2756 0.7664 0.1824, 0.2756 0.7772 0.185, 0.2756 0.7772 0.315, 0.2756 0.7693 0.315, 0.2756 0.7608 0.1444, 0.2756 0.7548 0.1538, 0.2756 0.7538 0.1649, 0.2756 0.7579 0.1752
            ]
        }
        coordIndex [
            0,1,2,-1,2,1,3,-1,4,5,6,-1,7,8,0,-1,0,8,9,-1,0,9,10,-1,6,11,4,-1,4,11,12,-1,4,12,2,-1,2,12,13,-1,2,13,0,-1,0,13,14,-1,0,14,7,-1,
        ]
    }
}
Shape{
    appearance Appearance {
        material  Material 	{
            diffuseColor 0.25098039215686274 0.25098039215686274 0.25098039215686274
            specularColor 0.12549019607843137 0.12549019607843137 0.12549019607843137
            ambientIntensity 0.251
            transparency 0.0
            shininess 0.5
        }
    }
    geometry IndexedFaceSet {
        ccw TRUE
        solid FALSE
        coord DEF co Coordinate {
            point [
                0.4724 0.6472 0.2244, 0.2756 0.6472 0.2244, 0.4724 0.7693 0.2244, 0.2756 0.7693 0.2244, 0.4724 0.6472 0.4409, 0.8267 0.6472 0.4409, 0.8267 0.6472 0.0827, -0.8268 0.6472 0.4409, -0.4725 0.6472 0.4409, -0.8268 0.6472 0.0827, -0.4725 0.6472 0.2244, -0.2756 0.6472 0.2244, -0.2756 0.6472 0.1969, -0.1969 0.6472 0.1969, 0.2756 0.6472 0.1969, 0.1968 0.6472 0.1969, 0.1968 0.6472 0.2244, -0.1969 0.6472 0.2244
            ]
        }
        coordIndex [
            0,1,2,-1,2,1,3,-1,4,5,0,-1,0,5,6,-1,7,8,9,-1,9,8,10,-1,9,10,11,-1,11,12,9,-1,9,12,13,-1,9,13,6,-1,1,0,14,-1,14,0,6,-1,14,6,15,-1,15,6,13,-1,15,13,16,-1,16,13,17,-1,
        ]
    }
}
Shape{
    appearance Appearance {
        material  Material 	{
            diffuseColor 1.0 1.0 0.5019607843137255
            specularColor 0.5019607843137255 0.5019607843137255 0.25098039215686274
            ambientIntensity 0.9432
            transparency 0.0
            shininess 0.5
        }
    }
    geometry IndexedFaceSet {
        ccw TRUE
        solid FALSE
        coord DEF co Coordinate {
            point [
                0.2756 0.663 0.1969, 0.2756 0.6472 0.1969, 0.1968 0.663 0.1969, 0.1968 0.6472 0.1969, 0.1968 0.663 0.0, 0.2756 0.663 0.0, 0.1968 0.8126 0.0, 0.2756 0.8126 0.0, 0.1968 0.8126 0.0945, 0.2756 0.8126 0.0945, 0.1968 0.7608 0.1444, 0.2756 0.7608 0.1444, 0.2756 0.7548 0.1538, 0.1968 0.7548 0.1538, 0.2756 0.7538 0.1649, 0.1968 0.7538 0.1649, 0.2756 0.7579 0.1752, 0.1968 0.7579 0.1752, 0.2756 0.7664 0.1824, 0.1968 0.7664 0.1824, 0.2756 0.7772 0.185, 0.1968 0.7772 0.185, 0.1968 0.7772 0.315, 0.2756 0.7772 0.315, 0.1968 0.6472 0.2244, 0.1968 0.7693 0.2244, 0.1968 0.7693 0.315
            ]
        }
        coordIndex [
            0,1,2,-1,2,1,3,-1,4,5,2,-1,2,5,0,-1,6,7,4,-1,4,7,5,-1,8,9,6,-1,6,9,7,-1,10,11,8,-1,8,11,9,-1,11,10,12,-1,12,10,13,-1,12,13,14,-1,14,13,15,-1,14,15,16,-1,16,15,17,-1,16,17,18,-1,18,17,19,-1,18,19,20,-1,20,19,21,-1,21,22,20,-1,20,22,23,-1,3,24,2,-1,2,24,25,-1,2,25,19,-1,26,22,25,-1,25,22,21,-1,25,21,19,-1,19,17,2,-1,2,17,15,-1,2,15,4,-1,8,6,10,-1,10,6,4,-1,10,4,13,-1,13,4,15,-1,
        ]
    }
}
Shape{
    appearance Appearance {
        material  Material 	{
            diffuseColor 0.25098039215686274 0.25098039215686274 0.25098039215686274
            specularColor 0.12549019607843137 0.12549019607843137 0.12549019607843137
            ambientIntensity 0.251
            transparency 0.0
            shininess 0.5
        }
    }
    geometry IndexedFaceSet {
        ccw TRUE
        solid FALSE
        coord DEF co Coordinate {
            point [
                -0.1969 0.7693 0.2244, 0.1968 0.7693 0.2244, -0.1969 0.6472 0.2244, 0.1968 0.6472 0.2244, -0.1969 0.7693 0.315, 0.1968 0.7693 0.315
            ]
        }
        coordIndex [
            0,1,2,-1,2,1,3,-1,4,5,0,-1,0,5,1,-1,
        ]
    }
}
Shape{
    appearance Appearance {
        material  Material 	{
            diffuseColor 1.0 1.0 0.5019607843137255
            specularColor 0.5019607843137255 0.5019607843137255 0.25098039215686274
            ambientIntensity 0.9432
            transparency 0.0
            shininess 0.5
        }
    }
    geometry IndexedFaceSet {
        ccw TRUE
        solid FALSE
        coord DEF co Coordinate {
            point [
                -0.1969 0.7693 0.2244, -0.1969 0.6472 0.2244, -0.1969 0.663 0.1969, -0.1969 0.6472 0.1969, -0.1969 0.663 0.0, -0.1969 0.8126 0.0, -0.1969 0.8126 0.0945, -0.1969 0.7664 0.1824, -0.1969 0.7772 0.185, -0.1969 0.7772 0.315, -0.1969 0.7693 0.315, -0.1969 0.7608 0.1444, -0.1969 0.7548 0.1538, -0.1969 0.7538 0.1649, -0.1969 0.7579 0.1752, -0.2756 0.7772 0.185, -0.2756 0.7772 0.315, -0.2756 0.6472 0.1969, -0.2756 0.6472 0.2244, -0.2756 0.663 0.1969, -0.2756 0.7693 0.2244, -0.2756 0.7664 0.1824, -0.2756 0.7693 0.315, -0.2756 0.7579 0.1752, -0.2756 0.7538 0.1649, -0.2756 0.663 0.0, -0.2756 0.8126 0.0945, -0.2756 0.8126 0.0, -0.2756 0.7608 0.1444, -0.2756 0.7548 0.1538
            ]
        }
        coordIndex [
            0,1,2,-1,2,1,3,-1,4,5,6,-1,7,8,0,-1,0,8,9,-1,0,9,10,-1,6,11,4,-1,4,11,12,-1,4,12,2,-1,2,12,13,-1,2,13,0,-1,0,13,14,-1,0,14,7,-1,15,16,8,-1,8,16,9,-1,17,18,19,-1,19,18,20,-1,19,20,21,-1,22,16,20,-1,20,16,15,-1,20,15,21,-1,21,23,19,-1,19,23,24,-1,19,24,25,-1,26,27,28,-1,28,27,25,-1,28,25,29,-1,29,25,24,-1,
        ]
    }
}
Shape{
    appearance Appearance {
        material  Material 	{
            diffuseColor 0.25098039215686274 0.25098039215686274 0.25098039215686274
            specularColor 0.12549019607843137 0.12549019607843137 0.12549019607843137
            ambientIntensity 0.251
            transparency 0.0
            shininess 0.5
        }
    }
    geometry IndexedFaceSet {
        ccw TRUE
        solid FALSE
        coord DEF co Coordinate {
            point [
                -0.4725 0.7693 0.2244, -0.2756 0.7693 0.2244, -0.4725 0.6472 0.2244, -0.2756 0.6472 0.2244, -0.4725 0.7693 0.315, -0.2756 0.7693 0.315, -0.4725 0.6472 0.4409, -0.4725 0.8008 0.315, -0.4725 0.8008 0.4409, -0.8268 0.6472 0.4409, -0.8268 0.8008 0.4409
            ]
        }
        coordIndex [
            0,1,2,-1,2,1,3,-1,4,5,0,-1,0,5,1,-1,0,2,4,-1,4,2,6,-1,4,6,7,-1,7,6,8,-1,6,9,8,-1,8,9,10,-1,
        ]
    }
}
Shape{
    appearance Appearance {
        material  Material 	{
            diffuseColor 1.0 1.0 0.5019607843137255
            specularColor 0.5019607843137255 0.5019607843137255 0.25098039215686274
            ambientIntensity 0.9432
            transparency 0.0
            shininess 0.5
        }
    }
    geometry IndexedFaceSet {
        ccw TRUE
        solid FALSE
        coord DEF co Coordinate {
            point [
                -0.1969 0.663 0.1969, -0.1969 0.6472 0.1969, -0.2756 0.663 0.1969, -0.2756 0.6472 0.1969, -0.2756 0.663 0.0, -0.1969 0.663 0.0, -0.2756 0.8126 0.0, -0.1969 0.8126 0.0, -0.2756 0.8126 0.0945, -0.1969 0.8126 0.0945, -0.2756 0.7608 0.1444, -0.1969 0.7608 0.1444, -0.1969 0.7548 0.1538, -0.2756 0.7548 0.1538, -0.1969 0.7538 0.1649, -0.2756 0.7538 0.1649, -0.1969 0.7579 0.1752, -0.2756 0.7579 0.1752, -0.1969 0.7664 0.1824, -0.2756 0.7664 0.1824, -0.1969 0.7772 0.185, -0.2756 0.7772 0.185
            ]
        }
        coordIndex [
            0,1,2,-1,2,1,3,-1,4,5,2,-1,2,5,0,-1,6,7,4,-1,4,7,5,-1,8,9,6,-1,6,9,7,-1,10,11,8,-1,8,11,9,-1,11,10,12,-1,12,10,13,-1,12,13,14,-1,14,13,15,-1,14,15,16,-1,16,15,17,-1,16,17,18,-1,18,17,19,-1,18,19,20,-1,20,19,21,-1,
        ]
    }
}
Shape{
    appearance Appearance {
        material  Material 	{
            diffuseColor 0.25098039215686274 0.25098039215686274 0.25098039215686274
            specularColor 0.12549019607843137 0.12549019607843137 0.12549019607843137
            ambientIntensity 0.251
            transparency 0.0
            shininess 0.5
        }
    }
    geometry IndexedFaceSet {
        ccw TRUE
        solid FALSE
        coord DEF co Coordinate {
            point [
                0.8267 0.6236 0.0591, -0.8268 0.6236 0.0591, 0.8267 0.6472 0.0827, -0.8268 0.6472 0.0827, 0.8267 0.5173 0.0591, -0.8268 0.5173 0.0591, 0.8267 0.4779 0.0197, -0.8268 0.4779 0.0197, 0.4724 0.8008 0.4409, 0.8267 0.8008 0.4409, 0.4724 0.6472 0.4409, 0.8267 0.6472 0.4409, 0.4724 0.7693 0.2244, 0.2756 0.7693 0.2244, 0.4724 0.7693 0.315, 0.2756 0.7693 0.315, 0.6549 -0.5378 0.5118, 0.6549 -0.6171 0.5118, 0.6889 -0.5378 0.5709, 0.6889 -0.6126 0.5709, 0.6653 -0.5378 0.4646, 0.7362 -0.5378 0.5709, 0.6653 0.0803 0.4646, 0.7362 0.0803 0.5709, 0.6653 -0.5378 0.3976, 0.6653 0.0803 0.3976, 0.748 -0.5378 0.3499, 0.748 0.0803 0.3499, 0.748 0.0803 0.0197, 0.748 -0.5378 0.0197, 0.5866 0.0803 0.5709, 0.5078 0.0803 0.4921, 0.5078 0.0803 0.0984, 0.6496 0.0803 0.0984, 0.6496 0.0803 0.0197, 0.5078 0.2496 0.4921, 0.5866 0.1709 0.5709, 0.5078 0.2496 0.0984, 0.6456 0.2496 0.0984, 0.6456 0.2496 0.4921, 0.7244 0.1709 0.5709, 0.6456 0.4858 0.4921, 0.7244 0.5646 0.5709, 0.6456 0.4858 0.0984, -0.6457 0.4858 0.4921, -0.7244 0.5646 0.5709, -0.6457 0.2496 0.4921, -0.7244 0.1709 0.5709, -0.6457 0.4858 0.0984, -0.6457 0.2496 0.0984, -0.5118 -0.5378 0.0984, -0.5118 -0.9709 0.0984, -0.3544 -0.9709 0.0984, -0.3544 0.159 0.0984, -0.2992 0.159 0.0984, -0.2992 0.4858 0.0984, -0.5079 0.2496 0.0984, -0.5079 0.0803 0.0984, -0.5512 -0.3213 0.0984, -0.6496 -0.3213 0.0984, -0.6496 -0.5378 0.0984, -0.5512 -0.1244 0.0984, -0.6496 -0.1244 0.0984, -0.6496 0.0803 0.0984, -0.2579 0.159 0.1457, -0.2579 0.4858 0.1457, -0.2958 0.159 0.1024, -0.2146 0.4858 0.1457, -0.1969 0.4858 0.1457, -0.2146 0.159 0.1457, -0.1969 0.1276 0.1457, -0.2756 0.1276 0.1457, -0.2756 0.4858 0.1457
            ]
        }
        coordIndex [
            0,1,2,-1,2,1,3,-1,4,5,0,-1,0,5,1,-1,4,6,5,-1,5,6,7,-1,8,9,10,-1,10,9,11,-1,12,13,14,-1,14,13,15,-1,16,17,18,-1,18,17,19,-1,20,21,22,-1,22,21,23,-1,24,20,25,-1,25,20,22,-1,26,24,27,-1,27,24,25,-1,27,28,26,-1,26,28,29,-1,23,30,22,-1,22,30,31,-1,22,31,25,-1,25,31,32,-1,25,32,27,-1,27,32,33,-1,27,33,28,-1,28,33,34,-1,35,31,36,-1,36,31,30,-1,32,31,37,-1,37,31,35,-1,37,35,38,-1,38,35,39,-1,35,36,39,-1,39,36,40,-1,39,40,41,-1,41,40,42,-1,38,39,43,-1,43,39,41,-1,41,42,44,-1,44,42,45,-1,44,45,46,-1,46,45,47,-1,48,44,49,-1,49,44,46,-1,50,51,52,-1,53,54,55,-1,48,49,55,-1,55,49,56,-1,55,56,53,-1,53,56,57,-1,53,57,52,-1,58,59,60,-1,60,50,58,-1,58,50,52,-1,58,52,61,-1,61,52,57,-1,61,57,62,-1,62,57,63,-1,64,65,66,-1,66,65,55,-1,66,55,54,-1,67,68,69,-1,69,68,70,-1,69,70,64,-1,64,70,71,-1,64,71,65,-1,65,71,72,-1,
        ]
    }
}
Shape{
    appearance Appearance {
        material  Material 	{
            diffuseColor 1.0 1.0 0.5019607843137255
            specularColor 0.5019607843137255 0.5019607843137255 0.25098039215686274
            ambientIntensity 0.9432
            transparency 0.0
            shininess 0.5
        }
    }
    geometry IndexedFaceSet {
        ccw TRUE
        solid FALSE
        coord DEF co Coordinate {
            point [
                -0.2284 0.0646 0.2087, -0.2441 0.0646 0.2087, -0.1969 0.0961 0.1772, -0.2756 0.0961 0.1772, -0.1969 0.1276 0.1457, -0.2756 0.1276 0.1457, -0.1969 0.0961 0.3504, -0.2284 0.0646 0.3189, -0.2441 0.0646 0.3189, -0.2756 0.0961 0.3504, -0.2756 0.4858 0.3583, -0.2756 0.4858 0.1457, -0.2756 0.1039 0.3583, -0.252 0.1276 0.3819, -0.252 0.4858 0.3819, -0.2205 0.1276 0.3819, -0.2205 0.4858 0.3819, -0.1969 0.1039 0.3583, -0.1969 0.4858 0.3583, -0.1969 0.4858 0.1457
            ]
        }
        coordIndex [
            0,1,2,-1,2,1,3,-1,2,3,4,-1,4,3,5,-1,6,7,2,-1,2,7,0,-1,1,0,8,-1,8,0,7,-1,8,9,1,-1,1,9,3,-1,10,11,12,-1,12,11,5,-1,12,5,9,-1,9,5,3,-1,12,13,10,-1,10,13,14,-1,13,15,14,-1,14,15,16,-1,15,17,16,-1,16,17,18,-1,6,2,17,-1,17,2,4,-1,17,4,18,-1,18,4,19,-1,8,7,9,-1,9,7,6,-1,9,6,12,-1,12,6,17,-1,12,17,13,-1,13,17,15,-1,
        ]
    }
}
Shape{
    appearance Appearance {
        material  Material 	{
            diffuseColor 0.25098039215686274 0.25098039215686274 0.25098039215686274
            specularColor 0.12549019607843137 0.12549019607843137 0.12549019607843137
            ambientIntensity 0.251
            transparency 0.0
            shininess 0.5
        }
    }
    geometry IndexedFaceSet {
        ccw TRUE
        solid FALSE
        coord DEF co Coordinate {
            point [
                -0.1733 0.159 0.0984, -0.1733 0.4858 0.0984, -0.1767 0.159 0.1024, -0.2146 0.4858 0.1457, -0.2146 0.159 0.1457, 0.1732 0.159 0.0984, 0.1732 0.4858 0.0984, 0.1766 0.159 0.1024, -0.2958 0.159 0.1024, -0.2579 0.159 0.1457, -0.3544 0.159 0.1024, -0.3544 0.159 0.0984, -0.2992 0.159 0.0984, -0.3544 -0.9709 0.1024, -0.3544 -0.9709 0.0984, -0.5118 -0.5378 0.0984, -0.5118 -0.5378 0.4409, -0.5118 -0.9709 0.0984, -0.5118 -0.9709 0.4409, -0.5827 -0.9709 0.5118, -0.5827 -0.7366 0.5118, -0.5827 -0.6776 0.5118, -0.5827 -0.5378 0.5118, -0.5827 -0.7366 0.315, -0.5827 -0.6776 0.315, -0.6103 -0.7366 0.315, -0.6103 -0.7366 0.5118, -0.6103 -0.9709 0.5118, -0.6103 -0.9709 0.315, -0.6378 -0.6402 0.315, -0.6378 -0.8055 0.315, -0.6103 -0.6776 0.315, -0.6103 -0.6323 0.315, -0.7166 -0.6402 0.315, -0.8268 -0.6323 0.315, -0.7166 -0.8055 0.315, -0.8268 -0.9709 0.315
            ]
        }
        coordIndex [
            0,1,2,-1,2,1,3,-1,2,3,4,-1,0,5,1,-1,1,5,6,-1,2,7,0,-1,0,7,5,-1,2,4,8,-1,8,4,9,-1,10,8,11,-1,11,8,12,-1,10,11,13,-1,13,11,14,-1,15,16,17,-1,17,16,18,-1,19,18,20,-1,20,18,16,-1,20,16,21,-1,21,16,22,-1,23,20,24,-1,24,20,21,-1,25,26,23,-1,23,26,20,-1,26,27,20,-1,20,27,19,-1,25,28,26,-1,26,28,27,-1,25,29,30,-1,23,24,25,-1,25,24,31,-1,25,31,29,-1,29,31,32,-1,29,32,33,-1,33,32,34,-1,33,34,35,-1,35,34,36,-1,35,36,30,-1,30,36,28,-1,30,28,25,-1,
        ]
    }
}
Shape{
    appearance Appearance {
        material  Material 	{
            diffuseColor 0.7529411764705882 0.7529411764705882 0.7529411764705882
            specularColor 0.3764705882352941 0.3764705882352941 0.3764705882352941
            ambientIntensity 0.7529
            transparency 0.0
            shininess 0.5
        }
    }
    geometry IndexedFaceSet {
        ccw TRUE
        solid FALSE
        coord DEF co Coordinate {
            point [
                -0.6378 -0.8055 0.315, -0.6378 -0.6402 0.315, -0.6378 -0.807 0.3225, -0.6378 -0.6402 0.4921, -0.6378 -0.8113 0.3289, -0.6378 -0.9039 0.3543, -0.6378 -0.8843 0.3346, -0.6378 -0.9039 0.4921, -0.6378 -0.8252 0.3346, -0.6378 -0.8177 0.3331, -0.7166 -0.8252 0.3346, -0.7166 -0.8177 0.3331, -0.7166 -0.8113 0.3289, -0.7166 -0.807 0.3225, -0.7166 -0.8055 0.315, -0.7166 -0.6402 0.315, -0.7166 -0.6402 0.4921, -0.7166 -0.8843 0.3346, -0.7166 -0.9039 0.3543, -0.7166 -0.9039 0.4921
            ]
        }
        coordIndex [
            0,1,2,-1,2,1,3,-1,2,3,4,-1,5,6,7,-1,7,6,8,-1,7,8,3,-1,3,8,9,-1,3,9,4,-1,8,10,9,-1,9,10,11,-1,9,11,4,-1,4,11,12,-1,4,12,2,-1,2,12,13,-1,2,13,0,-1,0,13,14,-1,15,14,16,-1,16,14,13,-1,17,18,10,-1,10,18,19,-1,10,19,11,-1,11,19,16,-1,11,16,12,-1,12,16,13,-1,3,1,16,-1,16,1,15,-1,19,7,16,-1,16,7,3,-1,18,5,19,-1,19,5,7,-1,17,6,18,-1,18,6,5,-1,10,8,17,-1,17,8,6,-1,
        ]
    }
}
Shape{
    appearance Appearance {
        material  Material 	{
            diffuseColor 0.25098039215686274 0.25098039215686274 0.25098039215686274
            specularColor 0.12549019607843137 0.12549019607843137 0.12549019607843137
            ambientIntensity 0.251
            transparency 0.0
            shininess 0.5
        }
    }
    geometry IndexedFaceSet {
        ccw TRUE
        solid FALSE
        coord DEF co Coordinate {
            point [
                -0.6103 -0.6171 0.5118, -0.6103 -0.6323 0.315, -0.6103 -0.6776 0.5118, -0.6103 -0.6776 0.315, -0.5827 -0.6776 0.5118, -0.5827 -0.5378 0.5118, -0.6549 -0.6171 0.5118, -0.6549 -0.5378 0.5118, -0.689 -0.5378 0.5709, -0.689 -0.6126 0.5709, -0.7363 -0.5378 0.5709, -0.6654 -0.5378 0.4646, -0.6654 -0.5378 0.3976, -0.6496 -0.5378 0.0197, -0.7481 -0.5378 0.0197, -0.6496 -0.5378 0.0984, -0.7481 -0.5378 0.3499, -0.5118 -0.5378 0.0984, -0.5118 -0.5378 0.4409, -0.6654 0.0803 0.4646, -0.7363 0.0803 0.5709, -0.7481 0.0803 0.0197, -0.6496 0.0803 0.0197, -0.7481 0.0803 0.3499, -0.6496 0.0803 0.0984, -0.6654 0.0803 0.3976, -0.5079 0.0803 0.0984, -0.5079 0.0803 0.4921, -0.5866 0.0803 0.5709, -0.5866 0.1709 0.5709, -0.5079 0.2496 0.4921, -0.6457 0.2496 0.4921, -0.7244 0.1709 0.5709, -0.6457 0.2496 0.0984, -0.5079 0.2496 0.0984, -0.6496 -0.1244 0.0197, -0.6496 -0.1244 0.0984, -0.5512 -0.1244 0.0984, -0.5512 -0.1244 0.0197, -0.5512 -0.3213 0.0984, -0.5512 -0.3213 0.0197, -0.6496 -0.3213 0.0984, -0.6496 -0.3213 0.0197, -0.5827 -0.6776 0.315, 0.6496 0.0803 0.0984, 0.6496 -0.1244 0.0984, 0.6496 0.0803 0.0197, 0.6496 -0.1244 0.0197, 0.5512 -0.1244 0.0984, 0.5512 -0.1244 0.0197, -0.7166 -0.6402 0.0591, -0.8268 -0.6165 0.0591, -0.5512 -0.6165 0.0591, -0.8268 -0.9709 0.0591, -0.7166 -0.8134 0.0591, -0.5512 -0.9709 0.0591, -0.6378 -0.8134 0.0591, -0.6378 -0.6402 0.0591
            ]
        }
        coordIndex [
            0,1,2,-1,2,1,3,-1,2,4,0,-1,0,4,5,-1,0,5,6,-1,6,5,7,-1,8,9,7,-1,7,9,6,-1,10,8,11,-1,11,8,7,-1,11,7,12,-1,12,7,5,-1,13,14,15,-1,15,14,16,-1,15,16,17,-1,17,16,12,-1,17,12,18,-1,18,12,5,-1,19,20,11,-1,11,20,10,-1,21,22,23,-1,23,22,24,-1,23,24,25,-1,25,24,26,-1,25,26,19,-1,19,26,27,-1,19,27,20,-1,20,27,28,-1,29,28,30,-1,30,28,27,-1,31,32,30,-1,30,32,29,-1,33,31,34,-1,34,31,30,-1,34,30,26,-1,26,30,27,-1,22,35,24,-1,24,35,36,-1,36,35,37,-1,37,35,38,-1,37,38,39,-1,39,38,40,-1,39,40,41,-1,41,40,42,-1,15,41,13,-1,13,41,42,-1,16,14,23,-1,23,14,21,-1,23,25,16,-1,16,25,12,-1,25,19,12,-1,12,19,11,-1,43,4,3,-1,3,4,2,-1,44,45,46,-1,46,45,47,-1,48,49,45,-1,45,49,47,-1,50,51,52,-1,51,50,53,-1,53,50,54,-1,53,54,55,-1,55,54,56,-1,55,56,52,-1,52,56,57,-1,52,57,50,-1,
        ]
    }
}
Shape{
    appearance Appearance {
        material  Material 	{
            diffuseColor 0.7529411764705882 0.7529411764705882 0.7529411764705882
            specularColor 0.3764705882352941 0.3764705882352941 0.3764705882352941
            ambientIntensity 0.7529
            transparency 0.0
            shininess 0.5
        }
    }
    geometry IndexedFaceSet {
        ccw TRUE
        solid FALSE
        coord DEF co Coordinate {
            point [
                -0.6378 -0.6402 0.0, -0.6378 -0.6402 0.0591, -0.6378 -0.8134 0.0, -0.6378 -0.8134 0.0591, -0.7166 -0.6402 0.0, -0.7166 -0.6402 0.0591, -0.7166 -0.8134 0.0, -0.7166 -0.8134 0.0591
            ]
        }
        coordIndex [
            0,1,2,-1,2,1,3,-1,4,5,0,-1,0,5,1,-1,6,7,4,-1,4,7,5,-1,2,3,6,-1,6,3,7,-1,4,0,6,-1,6,0,2,-1,
        ]
    }
}
Shape{
    appearance Appearance {
        material  Material 	{
            diffuseColor 0.25098039215686274 0.25098039215686274 0.25098039215686274
            specularColor 0.12549019607843137 0.12549019607843137 0.12549019607843137
            ambientIntensity 0.251
            transparency 0.0
            shininess 0.5
        }
    }
    geometry IndexedFaceSet {
        ccw TRUE
        solid FALSE
        coord DEF co Coordinate {
            point [
                0.5118 -0.9709 0.0197, 0.5118 -0.5772 0.0197, 0.5512 -0.9709 0.0591, 0.5512 -0.6165 0.0591, 0.6102 -0.7366 0.5118, 0.6102 -0.9709 0.5118, 0.6102 -0.7366 0.315, 0.6102 -0.9709 0.315, 0.5826 -0.7366 0.315, 0.5826 -0.7366 0.5118
            ]
        }
        coordIndex [
            0,1,2,-1,2,1,3,-1,4,5,6,-1,6,5,7,-1,8,9,6,-1,6,9,4,-1,
        ]
    }
}