#VRML V2.0 utf8
# 3D model generated by easyeda2kicad.py (https://github.com/uPesy/easyeda2kicad.py)

Shape{
    appearance Appearance {
        material  Material 	{
            diffuseColor 0.25098039215686274 0.25098039215686274 0.25098039215686274
            specularColor 0.12549019607843137 0.12549019607843137 0.12549019607843137
            ambientIntensity 0.251
            transparency 0.0
            shininess 0.5
        }
    }
    geometry IndexedFaceSet {
        ccw TRUE
        solid FALSE
        coord DEF co Coordinate {
            point [
                0.0181 -0.0215 0.0039, 0.0197 -0.0217 0.0039, -0.0227 -0.2362 0.0039, 0.315 -0.1969 0.0039, 0.374 -0.235 0.0039, 0.1378 -0.1969 0.0039, 0.374 -0.2362 0.0039, 0.0208 -0.0217 0.0039, 0.1378 -0.0215 0.0039, -0.0227 0.2362 0.0039, -0.0189 -0.0169 0.0039, -0.0227 -0.0215 0.0039, -0.0189 -0.0212 0.0039, 0.0023 -0.0212 0.0039, -0.0179 0.0138 0.0039, -0.003 0.0138 0.0039, -0.003 0.0009 0.0039, 0.0099 -0.0192 0.0039, 0.0099 -0.0149 0.0039, 0.0023 0.0181 0.0039, 0.374 0.235 0.0039, 0.315 0.1969 0.0039, 0.374 0.2362 0.0039, 0.1378 0.1969 0.0039, -0.003 -0.0035 0.0039, -0.003 -0.0169 0.0039, -0.0169 -0.0035 0.0039, -0.0169 0.0009 0.0039, 0.0628 -0.0212 0.0039, 0.0231 -0.0215 0.0039, 0.0426 -0.0212 0.0039, 0.0256 -0.0212 0.0039, 0.0294 -0.0199 0.0039, -0.0179 0.0181 0.0039, 0.023 0.0139 0.0039, 0.026 0.0128 0.0039, 0.0106 -0.0153 0.0039, 0.0287 0.011 0.0039, 0.0311 0.0084 0.0039, 0.0339 -0.002 0.0039, 0.0335 -0.0062 0.0039, 0.0325 -0.0096 0.0039, 0.0237 -0.017 0.0039, 0.02 -0.0174 0.0039, 0.0266 -0.0159 0.0039, 0.029 -0.0143 0.0039, 0.0308 -0.0123 0.0039, 0.0148 -0.0168 0.0039, 0.0371 0.0078 0.0039, 0.0348 0.0115 0.0039, 0.0575 0.0181 0.0039, 0.0327 0.0053 0.0039, 0.0338 0.0011 0.0039, 0.0313 0.0149 0.0039, 0.0628 0.0181 0.0039, 0.0326 -0.0179 0.0039, 0.0356 -0.0148 0.0039, 0.0426 -0.0169 0.0039, 0.0377 -0.011 0.0039, 0.0575 -0.0169 0.0039, 0.0388 -0.0068 0.0039, 0.0392 -0.0023 0.0039, 0.0387 0.0033 0.0039, 0.0275 0.017 0.0039, 0.0232 0.0183 0.0039, 0.0192 0.0186 0.0039, 0.0145 0.0183 0.0039, 0.0099 0.0171 0.0039, 0.0099 0.0118 0.0039, 0.0144 0.0137 0.0039, 0.0192 0.0143 0.0039, -0.2165 0.1969 0.0039, -0.315 0.1969 0.0039, -0.374 0.235 0.0039, -0.0611 -0.0212 0.0039, -0.0563 -0.0104 0.0039, -0.054 -0.014 0.0039, -0.1378 -0.1969 0.0039, -0.1378 -0.0215 0.0039, -0.0909 -0.0212 0.0039, -0.0508 -0.0171 0.0039, -0.0467 -0.0194 0.0039, -0.0421 -0.0208 0.0039, -0.0373 -0.0212 0.0039, -0.0266 -0.0212 0.0039, -0.0266 0.0181 0.0039, -0.0377 0.0181 0.0039, -0.0523 0.013 0.0039, -0.0551 0.0099 0.0039, -0.076 0.0181 0.0039, -0.0569 0.0065 0.0039, -0.0813 0.0181 0.0039, -0.0433 0.0175 0.0039, -0.048 0.0159 0.0039, -0.0522 0.013 0.0039, -0.374 0.2362 0.0039, -0.1378 0.1181 0.0039, -0.0966 -0.0212 0.0039, -0.0669 -0.0212 0.0039, -0.0706 -0.0102 0.0039, -0.0869 -0.0102 0.0039, -0.058 0.0027 0.0039, -0.0582 -0.001 0.0039, -0.0577 -0.0063 0.0039, -0.374 -0.235 0.0039, -0.315 -0.1969 0.0039, -0.374 -0.2362 0.0039, 0.0141 -0.0209 0.0039, 0.3543 0.1575 0.0039, 0.4017 0.2067 0.0039, 0.3543 -0.1575 0.0039, 0.4035 0.2067 0.0039, 0.4017 -0.2067 0.0039, 0.4035 -0.2067 0.0039, -0.3543 -0.1575 0.0039, -0.4017 -0.2067 0.0039, -0.3543 0.1575 0.0039, -0.4035 -0.2067 0.0039, -0.4017 0.2067 0.0039, -0.4035 0.2067 0.0039, 0.4035 -0.2067 0.1417, 0.4035 0.2067 0.1417, 0.374 0.2362 0.1417, -0.374 0.2362 0.1417, -0.4035 0.2067 0.1417, -0.4035 -0.2067 0.1417, 0.374 -0.2362 0.1417, -0.374 -0.2362 0.1417, 0.3888 0.2106 0.1417, 0.3828 0.1909 0.1417, 0.3959 0.2077 0.1417, 0.3877 0.1804 0.1417, 0.3907 0.1691 0.1417, 0.3364 0.2234 0.1417, 0.375 0.2286 0.1417, 0.3477 0.2204 0.1417, 0.378 0.2215 0.1417, 0.3583 0.2154 0.1417, 0.3827 0.2153 0.1417, 0.3678 0.2088 0.1417, 0.3761 0.2005 0.1417, -0.3888 0.2106 0.1417, -0.3761 0.2005 0.1417, -0.3827 0.2153 0.1417, -0.3678 0.2088 0.1417, -0.378 0.2215 0.1417, -0.3583 0.2154 0.1417, -0.375 0.2286 0.1417, -0.3477 0.2204 0.1417, -0.3907 0.1691 0.1417, -0.3959 0.2077 0.1417, -0.3877 0.1804 0.1417, -0.3828 0.1909 0.1417, -0.3888 -0.2106 0.1417, -0.3828 -0.1909 0.1417, -0.3959 -0.2077 0.1417, -0.3877 -0.1804 0.1417, 0.3748 -0.2296 0.1417, 0.3364 -0.2234 0.1417, 0.3248 -0.2244 0.1417, -0.3248 -0.2244 0.1417, -0.3364 -0.2234 0.1417, -0.375 -0.2286 0.1417, -0.3477 -0.2204 0.1417, -0.378 -0.2215 0.1417, -0.3583 -0.2154 0.1417, -0.3827 -0.2153 0.1417, -0.3678 -0.2088 0.1417, -0.3761 -0.2005 0.1417, 0.3917 0.1575 0.1417, 0.3917 -0.1575 0.1417, 0.3907 -0.1691 0.1417, 0.397 -0.2074 0.1417, 0.3877 -0.1804 0.1417, 0.3907 -0.2096 0.1417, 0.3828 -0.1909 0.1417, 0.3851 -0.2131 0.1417, 0.3761 -0.2005 0.1417, 0.3805 -0.2178 0.1417, 0.3678 -0.2088 0.1417, 0.3769 -0.2234 0.1417, 0.3583 -0.2154 0.1417, 0.3477 -0.2204 0.1417, -0.3364 0.2234 0.1417, -0.3248 0.2244 0.1417, 0.3248 0.2244 0.1417, -0.3907 -0.1691 0.1417, -0.3917 -0.1575 0.1417, -0.3917 0.1575 0.1417
            ]
        }
        coordIndex [
            0,1,2,-1,3,4,5,-1,5,4,6,-1,5,6,2,-1,2,1,5,-1,5,1,7,-1,5,7,8,-1,9,10,11,-1,11,10,12,-1,11,12,13,-1,14,15,16,-1,17,13,18,-1,18,13,19,-1,20,21,22,-1,22,21,23,-1,22,23,9,-1,24,25,26,-1,26,25,10,-1,26,10,27,-1,28,29,30,-1,30,29,31,-1,30,31,32,-1,16,27,14,-1,14,27,10,-1,14,10,33,-1,33,10,9,-1,33,9,19,-1,34,35,36,-1,36,35,37,-1,36,37,38,-1,39,40,36,-1,36,40,41,-1,42,43,44,-1,44,43,45,-1,41,46,36,-1,36,46,45,-1,36,45,47,-1,47,45,43,-1,48,49,50,-1,38,51,36,-1,36,51,52,-1,36,52,39,-1,49,53,50,-1,50,53,9,-1,50,9,54,-1,54,9,23,-1,54,23,28,-1,28,23,8,-1,28,8,29,-1,29,8,7,-1,32,55,30,-1,30,55,56,-1,30,56,57,-1,57,56,58,-1,57,58,59,-1,58,60,59,-1,59,60,61,-1,59,61,50,-1,50,61,62,-1,50,62,48,-1,53,63,9,-1,9,63,64,-1,9,64,65,-1,65,66,9,-1,9,66,67,-1,9,67,19,-1,19,67,68,-1,19,68,18,-1,18,68,69,-1,18,69,36,-1,36,69,70,-1,36,70,34,-1,71,72,73,-1,74,75,76,-1,77,78,11,-1,11,78,79,-1,76,80,74,-1,74,80,81,-1,74,81,82,-1,83,84,11,-1,11,84,85,-1,11,85,9,-1,9,85,86,-1,87,88,89,-1,89,88,90,-1,9,89,91,-1,86,92,9,-1,9,92,93,-1,9,93,89,-1,89,93,94,-1,89,94,87,-1,73,95,71,-1,71,95,9,-1,71,9,96,-1,96,9,91,-1,96,91,78,-1,78,91,97,-1,78,97,79,-1,82,83,74,-1,74,83,11,-1,74,11,98,-1,98,11,79,-1,98,79,99,-1,99,79,100,-1,90,101,89,-1,89,101,102,-1,89,102,74,-1,74,102,103,-1,74,103,75,-1,104,105,106,-1,106,105,77,-1,106,77,2,-1,2,77,11,-1,2,11,0,-1,0,11,13,-1,0,13,107,-1,107,13,17,-1,108,109,110,-1,110,109,111,-1,110,111,112,-1,112,111,113,-1,114,115,116,-1,116,115,117,-1,116,117,118,-1,118,117,119,-1,113,111,120,-1,120,111,121,-1,122,22,123,-1,123,22,9,-1,123,9,95,-1,119,117,124,-1,124,117,125,-1,6,126,2,-1,2,126,127,-1,2,127,106,-1,128,129,130,-1,130,129,131,-1,130,131,121,-1,121,131,132,-1,122,133,134,-1,134,133,135,-1,134,135,136,-1,136,135,137,-1,136,137,138,-1,138,137,139,-1,138,139,128,-1,128,139,140,-1,128,140,129,-1,141,142,143,-1,143,142,144,-1,143,144,145,-1,145,144,146,-1,145,146,147,-1,147,146,148,-1,147,148,123,-1,124,149,150,-1,150,149,151,-1,150,151,141,-1,141,151,152,-1,141,152,142,-1,153,154,155,-1,155,154,156,-1,155,156,125,-1,157,158,126,-1,126,158,159,-1,126,159,127,-1,159,160,127,-1,127,160,161,-1,127,161,162,-1,162,161,163,-1,162,163,164,-1,164,163,165,-1,164,165,166,-1,166,165,167,-1,166,167,153,-1,153,167,168,-1,153,168,154,-1,132,169,121,-1,121,169,170,-1,121,170,120,-1,120,170,171,-1,120,171,172,-1,172,171,173,-1,172,173,174,-1,174,173,175,-1,174,175,176,-1,176,175,177,-1,176,177,178,-1,178,177,179,-1,178,179,180,-1,180,179,181,-1,180,181,157,-1,157,181,182,-1,157,182,158,-1,148,183,123,-1,123,183,184,-1,123,184,122,-1,122,184,185,-1,122,185,133,-1,156,186,125,-1,125,186,187,-1,125,187,124,-1,124,187,188,-1,124,188,149,-1,
        ]
    }
}
Shape{
    appearance Appearance {
        material  Material 	{
            diffuseColor 0.9686274509803922 0.8784313725490196 0.6
            specularColor 0.6784313725490196 0.615686274509804 0.4196078431372549
            ambientIntensity 0.8737
            transparency 0.0
            shininess 0.5
        }
    }
    geometry IndexedFaceSet {
        ccw TRUE
        solid FALSE
        coord DEF co Coordinate {
            point [
                -0.3248 -0.2165 0.1732, -0.3248 -0.2165 0.1496, 0.3248 -0.2165 0.1732, 0.3248 -0.2165 0.1496, 0.3839 -0.1575 0.1732, 0.3839 -0.1575 0.1496, 0.3839 0.1575 0.1732, 0.3839 0.1575 0.1496, 0.3248 0.2165 0.1732, 0.3248 0.2165 0.1496, -0.3248 0.2165 0.1732, -0.3248 0.2165 0.1496, -0.3839 0.1575 0.1732, -0.3839 0.1575 0.1496, -0.3839 -0.1575 0.1732, -0.3839 -0.1575 0.1496, 0.3589 -0.1772 0.1811, 0.3721 -0.1771 0.1811, 0.3628 -0.1677 0.1811, 0.375 -0.1675 0.1811, 0.3642 -0.1575 0.1811, 0.376 -0.1575 0.1811, 0.3642 0.1575 0.1811, 0.376 0.1575 0.1811, 0.3628 0.1677 0.1811, 0.335 -0.1955 0.1811, 0.3444 -0.2048 0.1811, 0.3445 -0.1916 0.1811, 0.3532 -0.2 0.1811, 0.3526 -0.1853 0.1811, 0.361 -0.1937 0.1811, 0.3674 -0.1859 0.1811, -0.3628 -0.1677 0.1811, -0.3721 -0.1771 0.1811, -0.3589 -0.1772 0.1811, -0.3674 -0.1859 0.1811, -0.3526 -0.1853 0.1811, -0.361 -0.1937 0.1811, -0.3445 -0.1916 0.1811, -0.3589 0.1772 0.1811, -0.3721 0.1771 0.1811, -0.3628 0.1677 0.1811, -0.375 0.1675 0.1811, -0.3642 0.1575 0.1811, -0.376 0.1575 0.1811, -0.3642 -0.1575 0.1811, -0.376 -0.1575 0.1811, -0.375 -0.1675 0.1811, -0.3532 -0.2 0.1811, -0.3444 -0.2048 0.1811, -0.335 -0.1955 0.1811, -0.3348 -0.2077 0.1811, -0.3248 -0.1969 0.1811, -0.3248 -0.2087 0.1811, 0.3248 -0.1969 0.1811, 0.3248 -0.2087 0.1811, 0.3348 -0.2077 0.1811, -0.335 0.1955 0.1811, -0.3444 0.2048 0.1811, -0.3445 0.1916 0.1811, -0.3532 0.2 0.1811, -0.3526 0.1853 0.1811, -0.361 0.1937 0.1811, -0.3674 0.1859 0.1811, 0.375 0.1675 0.1811, 0.3721 0.1771 0.1811, 0.3589 0.1772 0.1811, 0.3674 0.1859 0.1811, 0.3526 0.1853 0.1811, 0.361 0.1937 0.1811, 0.3445 0.1916 0.1811, 0.3532 0.2 0.1811, 0.3444 0.2048 0.1811, 0.335 0.1955 0.1811, 0.3348 0.2077 0.1811, 0.3248 0.1969 0.1811, 0.3248 0.2087 0.1811, -0.3248 0.1969 0.1811, -0.3248 0.2087 0.1811, -0.3348 0.2077 0.1811, -0.3363 0.2154 0.1732, -0.3351 0.2156 0.1496, -0.34 0.2143 0.1732, -0.34 0.2143 0.1496, -0.3474 0.212 0.1732, -0.345 0.213 0.1496, -0.3542 0.2084 0.1732, -0.3543 0.2086 0.1496, -0.3576 0.2066 0.1732, -0.3628 0.2027 0.1496, -0.3666 0.1992 0.1732, -0.3759 0.187 0.1496, -0.3739 0.1903 0.1732, -0.37 0.1954 0.1496, -0.3664 0.1991 0.1496, -0.383 0.1677 0.1496, -0.3827 0.169 0.1732, -0.3816 0.1727 0.1496, -0.3816 0.1727 0.1732, -0.3803 0.1777 0.1496, -0.3794 0.1801 0.1732, -0.3757 0.1869 0.1732, 0.3827 0.169 0.1732, 0.383 0.1677 0.1496, 0.3816 0.1727 0.1732, 0.3816 0.1727 0.1496, 0.3794 0.1801 0.1732, 0.3803 0.1777 0.1496, 0.3757 0.1869 0.1732, 0.3759 0.187 0.1496, 0.3739 0.1903 0.1732, 0.37 0.1954 0.1496, 0.3666 0.1992 0.1732, 0.3543 0.2086 0.1496, 0.3576 0.2066 0.1732, 0.3628 0.2027 0.1496, 0.3664 0.1991 0.1496, 0.3351 0.2156 0.1496, 0.3363 0.2154 0.1732, 0.34 0.2143 0.1496, 0.34 0.2143 0.1732, 0.345 0.213 0.1496, 0.3474 0.212 0.1732, 0.3542 0.2084 0.1732, 0.3363 -0.2154 0.1732, 0.3351 -0.2156 0.1496, 0.34 -0.2143 0.1732, 0.34 -0.2143 0.1496, 0.3474 -0.212 0.1732, 0.345 -0.213 0.1496, 0.3542 -0.2084 0.1732, 0.3543 -0.2086 0.1496, 0.3576 -0.2066 0.1732, 0.3628 -0.2027 0.1496, 0.3666 -0.1992 0.1732, 0.3759 -0.187 0.1496, 0.3739 -0.1903 0.1732, 0.37 -0.1954 0.1496, 0.3664 -0.1991 0.1496, 0.383 -0.1677 0.1496, 0.3827 -0.169 0.1732, 0.3816 -0.1727 0.1496, 0.3816 -0.1727 0.1732, 0.3803 -0.1777 0.1496, 0.3794 -0.1801 0.1732, 0.3757 -0.1869 0.1732, -0.3827 -0.169 0.1732, -0.383 -0.1677 0.1496, -0.3816 -0.1727 0.1732, -0.3816 -0.1727 0.1496, -0.3794 -0.1801 0.1732, -0.3803 -0.1777 0.1496, -0.3757 -0.1869 0.1732, -0.3759 -0.187 0.1496, -0.3739 -0.1903 0.1732, -0.37 -0.1954 0.1496, -0.3666 -0.1992 0.1732, -0.3543 -0.2086 0.1496, -0.3576 -0.2066 0.1732, -0.3628 -0.2027 0.1496, -0.3664 -0.1991 0.1496, -0.3351 -0.2156 0.1496, -0.3363 -0.2154 0.1732, -0.34 -0.2143 0.1496, -0.34 -0.2143 0.1732, -0.345 -0.213 0.1496, -0.3474 -0.212 0.1732, -0.3542 -0.2084 0.1732
            ]
        }
        coordIndex [
            0,1,2,-1,2,1,3,-1,4,5,6,-1,6,5,7,-1,8,9,10,-1,10,9,11,-1,12,13,14,-1,14,13,15,-1,16,17,18,-1,18,17,19,-1,18,19,20,-1,20,19,21,-1,20,21,22,-1,22,21,23,-1,22,23,24,-1,25,26,27,-1,27,26,28,-1,27,28,29,-1,29,28,30,-1,29,30,16,-1,16,30,31,-1,16,31,17,-1,32,33,34,-1,34,33,35,-1,34,35,36,-1,36,35,37,-1,36,37,38,-1,39,40,41,-1,41,40,42,-1,41,42,43,-1,43,42,44,-1,43,44,45,-1,45,44,46,-1,45,46,32,-1,32,46,47,-1,32,47,33,-1,37,48,38,-1,38,48,49,-1,38,49,50,-1,50,49,51,-1,50,51,52,-1,52,51,53,-1,52,53,54,-1,54,53,55,-1,54,55,25,-1,25,55,56,-1,25,56,26,-1,57,58,59,-1,59,58,60,-1,59,60,61,-1,61,60,62,-1,61,62,39,-1,39,62,63,-1,39,63,40,-1,23,64,24,-1,24,64,65,-1,24,65,66,-1,66,65,67,-1,66,67,68,-1,68,67,69,-1,68,69,70,-1,69,71,70,-1,70,71,72,-1,70,72,73,-1,73,72,74,-1,73,74,75,-1,75,74,76,-1,75,76,77,-1,77,76,78,-1,77,78,57,-1,57,78,79,-1,57,79,58,-1,10,11,80,-1,80,11,81,-1,80,81,82,-1,82,81,83,-1,82,83,84,-1,84,83,85,-1,84,85,86,-1,86,85,87,-1,86,87,88,-1,88,87,89,-1,88,89,90,-1,91,92,93,-1,93,92,90,-1,93,90,94,-1,94,90,89,-1,13,12,95,-1,95,12,96,-1,95,96,97,-1,97,96,98,-1,97,98,99,-1,99,98,100,-1,99,100,91,-1,91,100,101,-1,91,101,92,-1,6,7,102,-1,102,7,103,-1,102,103,104,-1,104,103,105,-1,104,105,106,-1,106,105,107,-1,106,107,108,-1,108,107,109,-1,108,109,110,-1,110,109,111,-1,110,111,112,-1,113,114,115,-1,115,114,112,-1,115,112,116,-1,116,112,111,-1,9,8,117,-1,117,8,118,-1,117,118,119,-1,119,118,120,-1,119,120,121,-1,121,120,122,-1,121,122,113,-1,113,122,123,-1,113,123,114,-1,2,3,124,-1,124,3,125,-1,124,125,126,-1,126,125,127,-1,126,127,128,-1,128,127,129,-1,128,129,130,-1,130,129,131,-1,130,131,132,-1,132,131,133,-1,132,133,134,-1,135,136,137,-1,137,136,134,-1,137,134,138,-1,138,134,133,-1,5,4,139,-1,139,4,140,-1,139,140,141,-1,141,140,142,-1,141,142,143,-1,143,142,144,-1,143,144,135,-1,135,144,145,-1,135,145,136,-1,14,15,146,-1,146,15,147,-1,146,147,148,-1,148,147,149,-1,148,149,150,-1,150,149,151,-1,150,151,152,-1,152,151,153,-1,152,153,154,-1,154,153,155,-1,154,155,156,-1,157,158,159,-1,159,158,156,-1,159,156,160,-1,160,156,155,-1,1,0,161,-1,161,0,162,-1,161,162,163,-1,163,162,164,-1,163,164,165,-1,165,164,166,-1,165,166,157,-1,157,166,167,-1,157,167,158,-1,
        ]
    }
}
Shape{
    appearance Appearance {
        material  Material 	{
            diffuseColor 0.7529411764705882 0.7529411764705882 0.7529411764705882
            specularColor 0.3764705882352941 0.3764705882352941 0.3764705882352941
            ambientIntensity 0.7529
            transparency 0.0
            shininess 0.5
        }
    }
    geometry IndexedFaceSet {
        ccw TRUE
        solid FALSE
        coord DEF co Coordinate {
            point [
                0.3642 0.1575 0.1929, 0.3642 0.1575 0.1811, 0.3632 0.1662 0.1929, 0.3628 0.1677 0.1811, 0.3627 0.1676 0.1929, 0.3603 0.1746 0.1929, 0.3589 0.1772 0.1811, 0.3587 0.177 0.1929, 0.3556 0.182 0.1929, 0.3526 0.1853 0.1811, 0.3525 0.1851 0.1929, 0.3493 0.1883 0.1929, 0.3445 0.1916 0.1811, 0.3444 0.1914 0.1929, 0.3419 0.193 0.1929, 0.335 0.1955 0.1811, 0.3349 0.1954 0.1929, 0.3336 0.1959 0.1929, 0.3248 0.1969 0.1811, 0.3248 0.1969 0.1929, -0.3248 0.1969 0.1929, -0.3248 0.1969 0.1811, -0.3336 0.1959 0.1929, -0.335 0.1955 0.1811, -0.3349 0.1954 0.1929, -0.3419 0.193 0.1929, -0.3445 0.1916 0.1811, -0.3444 0.1914 0.1929, -0.3493 0.1883 0.1929, -0.3526 0.1853 0.1811, -0.3525 0.1851 0.1929, -0.3556 0.182 0.1929, -0.3589 0.1772 0.1811, -0.3587 0.177 0.1929, -0.3603 0.1746 0.1929, -0.3628 0.1677 0.1811, -0.3627 0.1676 0.1929, -0.3632 0.1662 0.1929, -0.3642 0.1575 0.1811, -0.3642 0.1575 0.1929, -0.3642 -0.1575 0.1929, -0.3642 -0.1575 0.1811, -0.3632 -0.1662 0.1929, -0.3628 -0.1677 0.1811, -0.3627 -0.1676 0.1929, -0.3603 -0.1746 0.1929, -0.3589 -0.1772 0.1811, -0.3587 -0.177 0.1929, -0.3556 -0.182 0.1929, -0.3526 -0.1853 0.1811, -0.3525 -0.1851 0.1929, -0.3493 -0.1883 0.1929, -0.3445 -0.1916 0.1811, -0.3444 -0.1914 0.1929, -0.3419 -0.193 0.1929, -0.335 -0.1955 0.1811, -0.3349 -0.1954 0.1929, -0.3336 -0.1959 0.1929, -0.3248 -0.1969 0.1811, -0.3248 -0.1969 0.1929, 0.3248 -0.1969 0.1929, 0.3248 -0.1969 0.1811, 0.3336 -0.1959 0.1929, 0.335 -0.1955 0.1811, 0.3349 -0.1954 0.1929, 0.3419 -0.193 0.1929, 0.3445 -0.1916 0.1811, 0.3444 -0.1914 0.1929, 0.3493 -0.1883 0.1929, 0.3526 -0.1853 0.1811, 0.3525 -0.1851 0.1929, 0.3556 -0.182 0.1929, 0.3589 -0.1772 0.1811, 0.3587 -0.177 0.1929, 0.3603 -0.1746 0.1929, 0.3628 -0.1677 0.1811, 0.3627 -0.1676 0.1929, 0.3632 -0.1662 0.1929, 0.3642 -0.1575 0.1811, 0.3642 -0.1575 0.1929, -0.3532 -0.1711 0.2008, -0.3494 -0.1771 0.2008, -0.3444 -0.1821 0.2008, 0.3248 0.189 0.2008, -0.3248 0.189 0.2008, -0.3563 0.1575 0.2008, -0.3555 -0.1645 0.2008, -0.3248 -0.189 0.2008, 0.3248 -0.189 0.2008, 0.3563 -0.1575 0.2008, -0.3563 -0.1575 0.2008, -0.3385 -0.1859 0.2008, -0.3318 -0.1882 0.2008, 0.3318 0.1882 0.2008, 0.3563 0.1575 0.2008, 0.3318 -0.1882 0.2008, 0.3385 -0.1859 0.2008, 0.3444 -0.1821 0.2008, 0.3494 -0.1771 0.2008, 0.3532 -0.1711 0.2008, 0.3555 -0.1645 0.2008, -0.3318 0.1882 0.2008, -0.3385 0.1859 0.2008, -0.3444 0.1821 0.2008, -0.3494 0.1771 0.2008, -0.3532 0.1711 0.2008, -0.3555 0.1645 0.2008, 0.3494 0.1771 0.2008, 0.3532 0.1711 0.2008, 0.3555 0.1645 0.2008, 0.3444 0.1821 0.2008, 0.3385 0.1859 0.2008, -0.3418 0.1927 0.195, -0.3629 0.1662 0.195, -0.355 0.172 0.2005, -0.351 0.1784 0.2005, -0.3567 0.1729 0.1997, -0.3525 0.1796 0.1997, -0.3582 0.1736 0.1985, -0.3538 0.1806 0.1985, -0.3593 0.1741 0.1969, -0.3575 0.1649 0.2005, -0.3593 0.1654 0.1997, -0.3609 0.1657 0.1985, -0.3622 0.166 0.1969, -0.3548 0.1814 0.1969, -0.3554 0.1819 0.195, -0.36 0.1744 0.195, -0.3583 0.1575 0.2005, -0.3602 0.1575 0.1997, -0.3619 0.1575 0.1985, -0.3631 0.1575 0.1969, -0.3639 0.1575 0.195, -0.3492 0.1881 0.195, -0.3487 0.1874 0.1969, -0.3479 0.1865 0.1985, -0.3469 0.1852 0.1997, -0.3457 0.1837 0.2005, -0.3414 0.192 0.1969, -0.3409 0.1909 0.1985, -0.3402 0.1894 0.1997, -0.3394 0.1877 0.2005, -0.3335 0.1956 0.195, -0.3333 0.1948 0.1969, -0.3331 0.1936 0.1985, -0.3327 0.192 0.1997, -0.3323 0.1902 0.2005, -0.3248 0.191 0.2005, -0.3248 0.1929 0.1997, -0.3248 0.1945 0.1985, -0.3248 0.1958 0.1969, -0.3248 0.1966 0.195, -0.3583 -0.1575 0.2005, -0.3602 -0.1575 0.1997, -0.3619 -0.1575 0.1985, -0.3631 -0.1575 0.1969, -0.3639 -0.1575 0.195, 0.3248 0.191 0.2005, 0.3248 0.1929 0.1997, 0.3248 0.1945 0.1985, 0.3248 0.1958 0.1969, 0.3248 0.1966 0.195, -0.36 -0.1744 0.195, -0.3335 -0.1956 0.195, -0.3394 -0.1877 0.2005, -0.3457 -0.1837 0.2005, -0.3402 -0.1894 0.1997, -0.3469 -0.1852 0.1997, -0.3409 -0.1909 0.1985, -0.3479 -0.1865 0.1985, -0.3414 -0.192 0.1969, -0.3323 -0.1902 0.2005, -0.3327 -0.192 0.1997, -0.3331 -0.1936 0.1985, -0.3333 -0.1948 0.1969, -0.3487 -0.1874 0.1969, -0.3492 -0.1881 0.195, -0.3418 -0.1927 0.195, -0.3248 -0.191 0.2005, -0.3248 -0.1929 0.1997, -0.3248 -0.1945 0.1985, -0.3248 -0.1958 0.1969, -0.3248 -0.1966 0.195, -0.3554 -0.1819 0.195, -0.3548 -0.1814 0.1969, -0.3538 -0.1806 0.1985, -0.3525 -0.1796 0.1997, -0.351 -0.1784 0.2005, -0.3593 -0.1741 0.1969, -0.3582 -0.1736 0.1985, -0.3567 -0.1729 0.1997, -0.355 -0.172 0.2005, -0.3629 -0.1662 0.195, -0.3622 -0.166 0.1969, -0.3609 -0.1657 0.1985, -0.3593 -0.1654 0.1997, -0.3575 -0.1649 0.2005, 0.36 0.1744 0.195, 0.3335 0.1956 0.195, 0.3394 0.1877 0.2005, 0.3457 0.1837 0.2005, 0.3402 0.1894 0.1997, 0.3469 0.1852 0.1997, 0.3409 0.1909 0.1985, 0.3479 0.1865 0.1985, 0.3414 0.192 0.1969, 0.3323 0.1902 0.2005, 0.3327 0.192 0.1997, 0.3331 0.1936 0.1985, 0.3333 0.1948 0.1969, 0.3487 0.1874 0.1969, 0.3492 0.1881 0.195, 0.3418 0.1927 0.195, 0.3554 0.1819 0.195, 0.3548 0.1814 0.1969, 0.3538 0.1806 0.1985, 0.3525 0.1796 0.1997, 0.351 0.1784 0.2005, 0.3593 0.1741 0.1969, 0.3582 0.1736 0.1985, 0.3567 0.1729 0.1997, 0.355 0.172 0.2005, 0.3629 0.1662 0.195, 0.3622 0.166 0.1969, 0.3609 0.1657 0.1985, 0.3593 0.1654 0.1997, 0.3575 0.1649 0.2005, 0.3583 0.1575 0.2005, 0.3602 0.1575 0.1997, 0.3619 0.1575 0.1985, 0.3631 0.1575 0.1969, 0.3639 0.1575 0.195, 0.3248 -0.191 0.2005, 0.3248 -0.1929 0.1997, 0.3248 -0.1945 0.1985, 0.3248 -0.1958 0.1969, 0.3248 -0.1966 0.195, 0.3583 -0.1575 0.2005, 0.3602 -0.1575 0.1997, 0.3619 -0.1575 0.1985, 0.3631 -0.1575 0.1969, 0.3639 -0.1575 0.195, 0.3418 -0.1927 0.195, 0.3629 -0.1662 0.195, 0.355 -0.172 0.2005, 0.351 -0.1784 0.2005, 0.3567 -0.1729 0.1997, 0.3525 -0.1796 0.1997, 0.3582 -0.1736 0.1985, 0.3538 -0.1806 0.1985, 0.3593 -0.1741 0.1969, 0.3575 -0.1649 0.2005, 0.3593 -0.1654 0.1997, 0.3609 -0.1657 0.1985, 0.3622 -0.166 0.1969, 0.3548 -0.1814 0.1969, 0.3554 -0.1819 0.195, 0.36 -0.1744 0.195, 0.3492 -0.1881 0.195, 0.3487 -0.1874 0.1969, 0.3479 -0.1865 0.1985, 0.3469 -0.1852 0.1997, 0.3457 -0.1837 0.2005, 0.3414 -0.192 0.1969, 0.3409 -0.1909 0.1985, 0.3402 -0.1894 0.1997, 0.3394 -0.1877 0.2005, 0.3335 -0.1956 0.195, 0.3333 -0.1948 0.1969, 0.3331 -0.1936 0.1985, 0.3327 -0.192 0.1997, 0.3323 -0.1902 0.2005
            ]
        }
        coordIndex [
            0,1,2,-1,2,1,3,-1,2,3,4,-1,4,3,5,-1,5,3,6,-1,5,6,7,-1,7,6,8,-1,8,6,9,-1,8,9,10,-1,10,9,11,-1,11,9,12,-1,11,12,13,-1,13,12,14,-1,14,12,15,-1,14,15,16,-1,16,15,17,-1,17,15,18,-1,17,18,19,-1,19,18,20,-1,20,18,21,-1,20,21,22,-1,22,21,23,-1,22,23,24,-1,24,23,25,-1,25,23,26,-1,25,26,27,-1,27,26,28,-1,28,26,29,-1,28,29,30,-1,30,29,31,-1,31,29,32,-1,31,32,33,-1,33,32,34,-1,34,32,35,-1,34,35,36,-1,36,35,37,-1,37,35,38,-1,37,38,39,-1,39,38,40,-1,40,38,41,-1,40,41,42,-1,42,41,43,-1,42,43,44,-1,44,43,45,-1,45,43,46,-1,45,46,47,-1,47,46,48,-1,48,46,49,-1,48,49,50,-1,50,49,51,-1,51,49,52,-1,51,52,53,-1,53,52,54,-1,54,52,55,-1,54,55,56,-1,56,55,57,-1,57,55,58,-1,57,58,59,-1,59,58,60,-1,60,58,61,-1,60,61,62,-1,62,61,63,-1,62,63,64,-1,64,63,65,-1,65,63,66,-1,65,66,67,-1,67,66,68,-1,68,66,69,-1,68,69,70,-1,70,69,71,-1,71,69,72,-1,71,72,73,-1,73,72,74,-1,74,72,75,-1,74,75,76,-1,76,75,77,-1,77,75,78,-1,77,78,79,-1,79,78,0,-1,0,78,1,-1,80,81,82,-1,83,84,85,-1,80,82,86,-1,87,88,89,-1,86,82,90,-1,90,82,91,-1,90,91,92,-1,93,83,94,-1,94,83,85,-1,94,85,89,-1,89,85,90,-1,89,90,87,-1,87,90,92,-1,88,95,89,-1,89,95,96,-1,89,96,97,-1,97,98,89,-1,89,98,99,-1,89,99,100,-1,84,101,85,-1,85,101,102,-1,85,102,103,-1,103,104,85,-1,85,104,105,-1,85,105,106,-1,107,94,108,-1,108,94,109,-1,107,110,94,-1,94,110,111,-1,94,111,93,-1,24,25,112,-1,36,37,113,-1,105,104,114,-1,114,104,115,-1,114,115,116,-1,116,115,117,-1,116,117,118,-1,118,117,119,-1,118,119,120,-1,106,105,121,-1,121,105,114,-1,121,114,122,-1,122,114,116,-1,122,116,123,-1,123,116,118,-1,123,118,124,-1,124,118,120,-1,124,120,113,-1,125,126,127,-1,85,106,128,-1,128,106,121,-1,128,121,129,-1,129,121,122,-1,129,122,130,-1,130,122,123,-1,130,123,131,-1,131,123,124,-1,131,124,132,-1,132,124,113,-1,132,113,39,-1,39,113,37,-1,119,125,120,-1,120,125,127,-1,120,127,113,-1,113,127,34,-1,113,34,36,-1,27,28,133,-1,133,28,126,-1,133,126,134,-1,134,126,125,-1,134,125,135,-1,135,125,119,-1,135,119,136,-1,136,119,117,-1,136,117,137,-1,137,117,115,-1,137,115,103,-1,103,115,104,-1,28,30,126,-1,126,30,31,-1,126,31,127,-1,127,31,33,-1,127,33,34,-1,25,27,112,-1,112,27,133,-1,112,133,138,-1,138,133,134,-1,138,134,139,-1,139,134,135,-1,139,135,140,-1,140,135,136,-1,140,136,141,-1,141,136,137,-1,141,137,102,-1,102,137,103,-1,22,24,142,-1,142,24,112,-1,142,112,143,-1,143,112,138,-1,143,138,144,-1,144,138,139,-1,144,139,145,-1,145,139,140,-1,145,140,146,-1,146,140,141,-1,146,141,101,-1,101,141,102,-1,101,84,146,-1,146,84,147,-1,146,147,145,-1,145,147,148,-1,145,148,144,-1,144,148,149,-1,144,149,143,-1,143,149,150,-1,143,150,142,-1,142,150,151,-1,142,151,22,-1,22,151,20,-1,90,85,128,-1,90,128,152,-1,152,128,129,-1,152,129,153,-1,153,129,130,-1,153,130,154,-1,154,130,131,-1,154,131,155,-1,155,131,132,-1,155,132,156,-1,156,132,39,-1,156,39,40,-1,84,83,157,-1,84,157,147,-1,147,157,158,-1,147,158,148,-1,148,158,159,-1,148,159,149,-1,149,159,160,-1,149,160,150,-1,150,160,161,-1,150,161,151,-1,151,161,19,-1,151,19,20,-1,44,45,162,-1,56,57,163,-1,91,82,164,-1,164,82,165,-1,164,165,166,-1,166,165,167,-1,166,167,168,-1,168,167,169,-1,168,169,170,-1,92,91,171,-1,171,91,164,-1,171,164,172,-1,172,164,166,-1,172,166,173,-1,173,166,168,-1,173,168,174,-1,174,168,170,-1,174,170,163,-1,175,176,177,-1,87,92,178,-1,178,92,171,-1,178,171,179,-1,179,171,172,-1,179,172,180,-1,180,172,173,-1,180,173,181,-1,181,173,174,-1,181,174,182,-1,182,174,163,-1,182,163,59,-1,59,163,57,-1,169,175,170,-1,170,175,177,-1,170,177,163,-1,163,177,54,-1,163,54,56,-1,47,48,183,-1,183,48,176,-1,183,176,184,-1,184,176,175,-1,184,175,185,-1,185,175,169,-1,185,169,186,-1,186,169,167,-1,186,167,187,-1,187,167,165,-1,187,165,81,-1,81,165,82,-1,48,50,176,-1,176,50,51,-1,176,51,177,-1,177,51,53,-1,177,53,54,-1,45,47,162,-1,162,47,183,-1,162,183,188,-1,188,183,184,-1,188,184,189,-1,189,184,185,-1,189,185,190,-1,190,185,186,-1,190,186,191,-1,191,186,187,-1,191,187,80,-1,80,187,81,-1,42,44,192,-1,192,44,162,-1,192,162,193,-1,193,162,188,-1,193,188,194,-1,194,188,189,-1,194,189,195,-1,195,189,190,-1,195,190,196,-1,196,190,191,-1,196,191,86,-1,86,191,80,-1,86,90,196,-1,196,90,152,-1,196,152,195,-1,195,152,153,-1,195,153,194,-1,194,153,154,-1,194,154,193,-1,193,154,155,-1,193,155,192,-1,192,155,156,-1,192,156,42,-1,42,156,40,-1,4,5,197,-1,16,17,198,-1,111,110,199,-1,199,110,200,-1,199,200,201,-1,201,200,202,-1,201,202,203,-1,203,202,204,-1,203,204,205,-1,93,111,206,-1,206,111,199,-1,206,199,207,-1,207,199,201,-1,207,201,208,-1,208,201,203,-1,208,203,209,-1,209,203,205,-1,209,205,198,-1,210,211,212,-1,83,93,157,-1,157,93,206,-1,157,206,158,-1,158,206,207,-1,158,207,159,-1,159,207,208,-1,159,208,160,-1,160,208,209,-1,160,209,161,-1,161,209,198,-1,161,198,19,-1,19,198,17,-1,204,210,205,-1,205,210,212,-1,205,212,198,-1,198,212,14,-1,198,14,16,-1,7,8,213,-1,213,8,211,-1,213,211,214,-1,214,211,210,-1,214,210,215,-1,215,210,204,-1,215,204,216,-1,216,204,202,-1,216,202,217,-1,217,202,200,-1,217,200,107,-1,107,200,110,-1,8,10,211,-1,211,10,11,-1,211,11,212,-1,212,11,13,-1,212,13,14,-1,5,7,197,-1,197,7,213,-1,197,213,218,-1,218,213,214,-1,218,214,219,-1,219,214,215,-1,219,215,220,-1,220,215,216,-1,220,216,221,-1,221,216,217,-1,221,217,108,-1,108,217,107,-1,2,4,222,-1,222,4,197,-1,222,197,223,-1,223,197,218,-1,223,218,224,-1,224,218,219,-1,224,219,225,-1,225,219,220,-1,225,220,226,-1,226,220,221,-1,226,221,109,-1,109,221,108,-1,109,94,226,-1,226,94,227,-1,226,227,225,-1,225,227,228,-1,225,228,224,-1,224,228,229,-1,224,229,223,-1,223,229,230,-1,223,230,222,-1,222,230,231,-1,222,231,2,-1,2,231,0,-1,88,87,178,-1,88,178,232,-1,232,178,179,-1,232,179,233,-1,233,179,180,-1,233,180,234,-1,234,180,181,-1,234,181,235,-1,235,181,182,-1,235,182,236,-1,236,182,59,-1,236,59,60,-1,94,89,237,-1,94,237,227,-1,227,237,238,-1,227,238,228,-1,228,238,239,-1,228,239,229,-1,229,239,240,-1,229,240,230,-1,230,240,241,-1,230,241,231,-1,231,241,79,-1,231,79,0,-1,64,65,242,-1,76,77,243,-1,99,98,244,-1,244,98,245,-1,244,245,246,-1,246,245,247,-1,246,247,248,-1,248,247,249,-1,248,249,250,-1,100,99,251,-1,251,99,244,-1,251,244,252,-1,252,244,246,-1,252,246,253,-1,253,246,248,-1,253,248,254,-1,254,248,250,-1,254,250,243,-1,255,256,257,-1,89,100,237,-1,237,100,251,-1,237,251,238,-1,238,251,252,-1,238,252,239,-1,239,252,253,-1,239,253,240,-1,240,253,254,-1,240,254,241,-1,241,254,243,-1,241,243,79,-1,79,243,77,-1,249,255,250,-1,250,255,257,-1,250,257,243,-1,243,257,74,-1,243,74,76,-1,67,68,258,-1,258,68,256,-1,258,256,259,-1,259,256,255,-1,259,255,260,-1,260,255,249,-1,260,249,261,-1,261,249,247,-1,261,247,262,-1,262,247,245,-1,262,245,97,-1,97,245,98,-1,68,70,256,-1,256,70,71,-1,256,71,257,-1,257,71,73,-1,257,73,74,-1,65,67,242,-1,242,67,258,-1,242,258,263,-1,263,258,259,-1,263,259,264,-1,264,259,260,-1,264,260,265,-1,265,260,261,-1,265,261,266,-1,266,261,262,-1,266,262,96,-1,96,262,97,-1,62,64,267,-1,267,64,242,-1,267,242,268,-1,268,242,263,-1,268,263,269,-1,269,263,264,-1,269,264,270,-1,270,264,265,-1,270,265,271,-1,271,265,266,-1,271,266,95,-1,95,266,96,-1,95,88,271,-1,271,88,232,-1,271,232,270,-1,270,232,233,-1,270,233,269,-1,269,233,234,-1,269,234,268,-1,268,234,235,-1,268,235,267,-1,267,235,236,-1,267,236,62,-1,62,236,60,-1,
        ]
    }
}
Shape{
    appearance Appearance {
        material  Material 	{
            diffuseColor 0.9686274509803922 0.8784313725490196 0.6
            specularColor 0.6784313725490196 0.615686274509804 0.4196078431372549
            ambientIntensity 0.8737
            transparency 0.0
            shininess 0.5
        }
    }
    geometry IndexedFaceSet {
        ccw TRUE
        solid FALSE
        coord DEF co Coordinate {
            point [
                0.3816 0.1727 0.1732, 0.3794 0.1801 0.1732, 0.3791 0.18 0.1753, 0.3542 0.2084 0.1732, 0.3474 0.212 0.1732, 0.3473 0.2118 0.1753, 0.3348 0.2077 0.1811, 0.3444 0.2048 0.1811, 0.3352 0.2097 0.1808, 0.3452 0.2066 0.1808, 0.3356 0.2115 0.18, 0.3459 0.2084 0.18, 0.3359 0.2131 0.1788, 0.3465 0.2099 0.1788, 0.3361 0.2144 0.1772, 0.347 0.2111 0.1772, 0.3363 0.2151 0.1753, 0.3674 0.1859 0.1811, 0.3721 0.1771 0.1811, 0.3691 0.187 0.1808, 0.374 0.1778 0.1808, 0.3706 0.1881 0.18, 0.3757 0.1786 0.18, 0.372 0.189 0.1788, 0.3772 0.1792 0.1788, 0.373 0.1897 0.1772, 0.3784 0.1797 0.1772, 0.3737 0.1901 0.1753, 0.3248 0.2087 0.1811, 0.3248 0.2107 0.1808, 0.3248 0.2126 0.18, 0.3248 0.2142 0.1788, 0.3248 0.2155 0.1772, 0.3248 0.2163 0.1753, 0.3248 0.2165 0.1732, 0.3363 0.2154 0.1732, 0.34 0.2143 0.1732, 0.3576 0.2066 0.1732, 0.3575 0.2064 0.1753, 0.357 0.2057 0.1772, 0.3563 0.2047 0.1788, 0.3554 0.2033 0.18, 0.3544 0.2017 0.1808, 0.3532 0.2 0.1811, 0.361 0.1937 0.1811, 0.3624 0.1951 0.1808, 0.3638 0.1965 0.18, 0.3649 0.1976 0.1788, 0.3658 0.1985 0.1772, 0.3664 0.199 0.1753, 0.3666 0.1992 0.1732, 0.3739 0.1903 0.1732, 0.3757 0.1869 0.1732, 0.3827 0.169 0.1732, 0.3825 0.1689 0.1753, 0.3817 0.1688 0.1772, 0.3805 0.1686 0.1788, 0.3789 0.1682 0.18, 0.377 0.1679 0.1808, 0.375 0.1675 0.1811, 0.376 0.1575 0.1811, 0.378 0.1575 0.1808, 0.3799 0.1575 0.18, 0.3816 0.1575 0.1788, 0.3828 0.1575 0.1772, 0.3836 0.1575 0.1753, 0.3839 0.1575 0.1732, -0.3248 0.2087 0.1811, -0.3248 0.2107 0.1808, -0.3248 0.2126 0.18, -0.3248 0.2142 0.1788, -0.3248 0.2155 0.1772, -0.3248 0.2163 0.1753, -0.3248 0.2165 0.1732, 0.376 -0.1575 0.1811, 0.378 -0.1575 0.1808, 0.3799 -0.1575 0.18, 0.3816 -0.1575 0.1788, 0.3828 -0.1575 0.1772, 0.3836 -0.1575 0.1753, 0.3839 -0.1575 0.1732, -0.34 0.2143 0.1732, -0.3474 0.212 0.1732, -0.3473 0.2118 0.1753, -0.3757 0.1869 0.1732, -0.3794 0.1801 0.1732, -0.3791 0.18 0.1753, -0.375 0.1675 0.1811, -0.3721 0.1771 0.1811, -0.377 0.1679 0.1808, -0.374 0.1778 0.1808, -0.3789 0.1682 0.18, -0.3757 0.1786 0.18, -0.3805 0.1686 0.1788, -0.3772 0.1792 0.1788, -0.3817 0.1688 0.1772, -0.3784 0.1797 0.1772, -0.3825 0.1689 0.1753, -0.3532 0.2 0.1811, -0.3444 0.2048 0.1811, -0.3544 0.2017 0.1808, -0.3452 0.2066 0.1808, -0.3554 0.2033 0.18, -0.3459 0.2084 0.18, -0.3563 0.2047 0.1788, -0.3465 0.2099 0.1788, -0.357 0.2057 0.1772, -0.347 0.2111 0.1772, -0.3575 0.2064 0.1753, -0.376 0.1575 0.1811, -0.378 0.1575 0.1808, -0.3799 0.1575 0.18, -0.3816 0.1575 0.1788, -0.3828 0.1575 0.1772, -0.3836 0.1575 0.1753, -0.3839 0.1575 0.1732, -0.3827 0.169 0.1732, -0.3816 0.1727 0.1732, -0.3739 0.1903 0.1732, -0.3737 0.1901 0.1753, -0.373 0.1897 0.1772, -0.372 0.189 0.1788, -0.3706 0.1881 0.18, -0.3691 0.187 0.1808, -0.3674 0.1859 0.1811, -0.361 0.1937 0.1811, -0.3624 0.1951 0.1808, -0.3638 0.1965 0.18, -0.3649 0.1976 0.1788, -0.3658 0.1985 0.1772, -0.3664 0.199 0.1753, -0.3666 0.1992 0.1732, -0.3576 0.2066 0.1732, -0.3542 0.2084 0.1732, -0.3363 0.2154 0.1732, -0.3363 0.2151 0.1753, -0.3361 0.2144 0.1772, -0.3359 0.2131 0.1788, -0.3356 0.2115 0.18, -0.3352 0.2097 0.1808, -0.3348 0.2077 0.1811, 0.34 -0.2143 0.1732, 0.3474 -0.212 0.1732, 0.3473 -0.2118 0.1753, 0.3757 -0.1869 0.1732, 0.3794 -0.1801 0.1732, 0.3791 -0.18 0.1753, 0.375 -0.1675 0.1811, 0.3721 -0.1771 0.1811, 0.377 -0.1679 0.1808, 0.374 -0.1778 0.1808, 0.3789 -0.1682 0.18, 0.3757 -0.1786 0.18, 0.3805 -0.1686 0.1788, 0.3772 -0.1792 0.1788, 0.3817 -0.1688 0.1772, 0.3784 -0.1797 0.1772, 0.3825 -0.1689 0.1753, 0.3532 -0.2 0.1811, 0.3444 -0.2048 0.1811, 0.3544 -0.2017 0.1808, 0.3452 -0.2066 0.1808, 0.3554 -0.2033 0.18, 0.3459 -0.2084 0.18, 0.3563 -0.2047 0.1788, 0.3465 -0.2099 0.1788, 0.357 -0.2057 0.1772, 0.347 -0.2111 0.1772, 0.3575 -0.2064 0.1753, 0.3827 -0.169 0.1732, 0.3816 -0.1727 0.1732, 0.3739 -0.1903 0.1732, 0.3737 -0.1901 0.1753, 0.373 -0.1897 0.1772, 0.372 -0.189 0.1788, 0.3706 -0.1881 0.18, 0.3691 -0.187 0.1808, 0.3674 -0.1859 0.1811, 0.361 -0.1937 0.1811, 0.3624 -0.1951 0.1808, 0.3638 -0.1965 0.18, 0.3649 -0.1976 0.1788, 0.3658 -0.1985 0.1772, 0.3664 -0.199 0.1753, 0.3666 -0.1992 0.1732, 0.3576 -0.2066 0.1732, 0.3542 -0.2084 0.1732, 0.3363 -0.2154 0.1732, 0.3363 -0.2151 0.1753, 0.3361 -0.2144 0.1772, 0.3359 -0.2131 0.1788, 0.3356 -0.2115 0.18, 0.3352 -0.2097 0.1808, 0.3348 -0.2077 0.1811, 0.3248 -0.2087 0.1811, 0.3248 -0.2107 0.1808, 0.3248 -0.2126 0.18, 0.3248 -0.2142 0.1788, 0.3248 -0.2155 0.1772, 0.3248 -0.2163 0.1753, 0.3248 -0.2165 0.1732, -0.376 -0.1575 0.1811, -0.378 -0.1575 0.1808, -0.3799 -0.1575 0.18, -0.3816 -0.1575 0.1788, -0.3828 -0.1575 0.1772, -0.3836 -0.1575 0.1753, -0.3839 -0.1575 0.1732, -0.3248 -0.2087 0.1811, -0.3248 -0.2107 0.1808, -0.3248 -0.2126 0.18, -0.3248 -0.2142 0.1788, -0.3248 -0.2155 0.1772, -0.3248 -0.2163 0.1753, -0.3248 -0.2165 0.1732, -0.3816 -0.1727 0.1732, -0.3794 -0.1801 0.1732, -0.3791 -0.18 0.1753, -0.3542 -0.2084 0.1732, -0.3474 -0.212 0.1732, -0.3473 -0.2118 0.1753, -0.3348 -0.2077 0.1811, -0.3444 -0.2048 0.1811, -0.3352 -0.2097 0.1808, -0.3452 -0.2066 0.1808, -0.3356 -0.2115 0.18, -0.3459 -0.2084 0.18, -0.3359 -0.2131 0.1788, -0.3465 -0.2099 0.1788, -0.3361 -0.2144 0.1772, -0.347 -0.2111 0.1772, -0.3363 -0.2151 0.1753, -0.3674 -0.1859 0.1811, -0.3721 -0.1771 0.1811, -0.3691 -0.187 0.1808, -0.374 -0.1778 0.1808, -0.3706 -0.1881 0.18, -0.3757 -0.1786 0.18, -0.372 -0.189 0.1788, -0.3772 -0.1792 0.1788, -0.373 -0.1897 0.1772, -0.3784 -0.1797 0.1772, -0.3737 -0.1901 0.1753, -0.3363 -0.2154 0.1732, -0.34 -0.2143 0.1732, -0.3576 -0.2066 0.1732, -0.3575 -0.2064 0.1753, -0.357 -0.2057 0.1772, -0.3563 -0.2047 0.1788, -0.3554 -0.2033 0.18, -0.3544 -0.2017 0.1808, -0.3532 -0.2 0.1811, -0.361 -0.1937 0.1811, -0.3624 -0.1951 0.1808, -0.3638 -0.1965 0.18, -0.3649 -0.1976 0.1788, -0.3658 -0.1985 0.1772, -0.3664 -0.199 0.1753, -0.3666 -0.1992 0.1732, -0.3739 -0.1903 0.1732, -0.3757 -0.1869 0.1732, -0.3827 -0.169 0.1732, -0.3825 -0.1689 0.1753, -0.3817 -0.1688 0.1772, -0.3805 -0.1686 0.1788, -0.3789 -0.1682 0.18, -0.377 -0.1679 0.1808, -0.375 -0.1675 0.1811, 0.3248 0.2168 0.1476, 0.3248 0.2165 0.1496, 0.3351 0.2159 0.1476, 0.3351 0.2156 0.1496, 0.3451 0.2132 0.1476, 0.34 0.2143 0.1496, 0.345 0.213 0.1496, 0.3545 0.2089 0.1476, 0.3543 0.2086 0.1496, 0.3629 0.2029 0.1476, 0.3628 0.2027 0.1496, 0.3664 0.1991 0.1496, 0.3702 0.1956 0.1476, 0.37 0.1954 0.1496, 0.3762 0.1871 0.1476, 0.3759 0.187 0.1496, 0.3805 0.1778 0.1476, 0.3839 0.1575 0.1496, 0.3841 0.1575 0.1476, 0.383 0.1677 0.1496, 0.3832 0.1678 0.1476, 0.3816 0.1727 0.1496, 0.3803 0.1777 0.1496, 0.3849 0.1575 0.1457, 0.384 0.1679 0.1457, 0.3813 0.178 0.1457, 0.3769 0.1875 0.1457, 0.3709 0.1961 0.1457, 0.3634 0.2035 0.1457, 0.3549 0.2095 0.1457, 0.3454 0.214 0.1457, 0.3352 0.2167 0.1457, 0.3248 0.2176 0.1457, 0.3862 0.1575 0.144, 0.3852 0.1681 0.144, 0.3825 0.1785 0.144, 0.3779 0.1882 0.144, 0.3718 0.1969 0.144, 0.3642 0.2045 0.144, 0.3555 0.2106 0.144, 0.3458 0.2151 0.144, 0.3355 0.2179 0.144, 0.3248 0.2188 0.144, 0.3878 0.1575 0.1428, 0.3868 0.1684 0.1428, 0.384 0.179 0.1428, 0.3794 0.189 0.1428, 0.3731 0.198 0.1428, 0.3653 0.2057 0.1428, 0.3563 0.212 0.1428, 0.3463 0.2167 0.1428, 0.3357 0.2195 0.1428, 0.3248 0.2205 0.1428, 0.3897 0.1575 0.142, 0.3887 0.1687 0.142, 0.3858 0.1797 0.142, 0.381 0.1899 0.142, 0.3745 0.1992 0.142, 0.3665 0.2072 0.142, 0.3572 0.2137 0.142, 0.347 0.2185 0.142, 0.3361 0.2214 0.142, 0.3248 0.2224 0.142, 0.3917 0.1575 0.1417, 0.3907 0.1691 0.1417, 0.3877 0.1804 0.1417, 0.3828 0.1909 0.1417, 0.3761 0.2005 0.1417, 0.3678 0.2088 0.1417, 0.3583 0.2154 0.1417, 0.3477 0.2204 0.1417, 0.3364 0.2234 0.1417, 0.3248 0.2244 0.1417, 0.3917 -0.1575 0.1417, 0.3897 -0.1575 0.142, 0.3878 -0.1575 0.1428, 0.3862 -0.1575 0.144, 0.3849 -0.1575 0.1457, 0.3841 -0.1575 0.1476, 0.3839 -0.1575 0.1496, -0.3248 0.2244 0.1417, -0.3248 0.2224 0.142, -0.3248 0.2205 0.1428, -0.3248 0.2188 0.144, -0.3248 0.2176 0.1457, -0.3248 0.2168 0.1476, -0.3248 0.2165 0.1496, 0.3832 -0.1678 0.1476, 0.383 -0.1677 0.1496, 0.3816 -0.1727 0.1496, 0.3805 -0.1778 0.1476, 0.3803 -0.1777 0.1496, 0.3762 -0.1871 0.1476, 0.3759 -0.187 0.1496, 0.3702 -0.1956 0.1476, 0.37 -0.1954 0.1496, 0.3664 -0.1991 0.1496, 0.3629 -0.2029 0.1476, 0.3628 -0.2027 0.1496, 0.3545 -0.2089 0.1476, 0.3543 -0.2086 0.1496, 0.3451 -0.2132 0.1476, 0.3248 -0.2165 0.1496, 0.3248 -0.2168 0.1476, 0.3351 -0.2156 0.1496, 0.3351 -0.2159 0.1476, 0.34 -0.2143 0.1496, 0.345 -0.213 0.1496, 0.3248 -0.2176 0.1457, 0.3352 -0.2167 0.1457, 0.3454 -0.214 0.1457, 0.3549 -0.2095 0.1457, 0.3634 -0.2035 0.1457, 0.3709 -0.1961 0.1457, 0.3769 -0.1875 0.1457, 0.3813 -0.178 0.1457, 0.384 -0.1679 0.1457, 0.3248 -0.2188 0.144, 0.3355 -0.2179 0.144, 0.3458 -0.2151 0.144, 0.3555 -0.2106 0.144, 0.3642 -0.2045 0.144, 0.3718 -0.1969 0.144, 0.3779 -0.1882 0.144, 0.3825 -0.1785 0.144, 0.3852 -0.1681 0.144, 0.3248 -0.2205 0.1428, 0.3357 -0.2195 0.1428, 0.3463 -0.2167 0.1428, 0.3563 -0.212 0.1428, 0.3653 -0.2057 0.1428, 0.3731 -0.198 0.1428, 0.3794 -0.189 0.1428, 0.384 -0.179 0.1428, 0.3868 -0.1684 0.1428, 0.3248 -0.2224 0.142, 0.3361 -0.2214 0.142, 0.347 -0.2185 0.142, 0.3572 -0.2137 0.142, 0.3665 -0.2072 0.142, 0.3745 -0.1992 0.142, 0.381 -0.1899 0.142, 0.3858 -0.1797 0.142, 0.3887 -0.1687 0.142, 0.3248 -0.2244 0.1417, 0.3364 -0.2234 0.1417, 0.3477 -0.2204 0.1417, 0.3583 -0.2154 0.1417, 0.3678 -0.2088 0.1417, 0.3761 -0.2005 0.1417, 0.3828 -0.1909 0.1417, 0.3877 -0.1804 0.1417, 0.3907 -0.1691 0.1417, -0.39 0.1575 0.142, -0.3897 0.1575 0.142, -0.3887 0.1687 0.142, -0.3883 0.1575 0.1426, -0.3878 0.1575 0.1428, -0.3868 0.1684 0.1428, -0.3869 0.1575 0.1435, -0.3862 0.1575 0.144, -0.3852 0.1681 0.144, -0.3856 0.1575 0.1447, -0.3849 0.1575 0.1457, -0.384 0.1679 0.1457, -0.3847 0.1575 0.1462, -0.3841 0.1575 0.1476, -0.3832 0.1678 0.1476, -0.3841 0.1575 0.1479, -0.3839 0.1575 0.1496, -0.383 0.1677 0.1496, -0.3805 0.1778 0.1476, -0.3816 0.1727 0.1496, -0.3803 0.1777 0.1496, -0.3762 0.1871 0.1476, -0.3759 0.187 0.1496, -0.3702 0.1956 0.1476, -0.37 0.1954 0.1496, -0.3629 0.2029 0.1476, -0.3664 0.1991 0.1496, -0.3628 0.2027 0.1496, -0.3545 0.2089 0.1476, -0.3543 0.2086 0.1496, -0.3451 0.2132 0.1476, -0.3351 0.2156 0.1496, -0.3351 0.2159 0.1476, -0.34 0.2143 0.1496, -0.345 0.213 0.1496, -0.3352 0.2167 0.1457, -0.3454 0.214 0.1457, -0.3549 0.2095 0.1457, -0.3634 0.2035 0.1457, -0.3709 0.1961 0.1457, -0.3769 0.1875 0.1457, -0.3813 0.178 0.1457, -0.3355 0.2179 0.144, -0.3458 0.2151 0.144, -0.3555 0.2106 0.144, -0.3642 0.2045 0.144, -0.3718 0.1969 0.144, -0.3779 0.1882 0.144, -0.3825 0.1785 0.144, -0.3357 0.2195 0.1428, -0.3463 0.2167 0.1428, -0.3563 0.212 0.1428, -0.3653 0.2057 0.1428, -0.3731 0.198 0.1428, -0.3794 0.189 0.1428, -0.384 0.179 0.1428, -0.3361 0.2214 0.142, -0.347 0.2185 0.142, -0.3572 0.2137 0.142, -0.3665 0.2072 0.142, -0.3745 0.1992 0.142, -0.381 0.1899 0.142, -0.3858 0.1797 0.142, -0.3364 0.2234 0.1417, -0.3477 0.2204 0.1417, -0.3583 0.2154 0.1417, -0.3678 0.2088 0.1417, -0.3761 0.2005 0.1417, -0.3828 0.1909 0.1417, -0.3877 0.1804 0.1417, -0.3907 0.1691 0.1417, -0.3917 0.1575 0.1417, -0.3248 -0.2227 0.1419, -0.3248 -0.2244 0.1417, -0.3248 -0.2224 0.142, -0.3248 -0.221 0.1425, -0.3248 -0.2205 0.1428, -0.3248 -0.2195 0.1434, -0.3248 -0.2189 0.1441, -0.3248 -0.2183 0.1447, -0.3248 -0.2176 0.1457, -0.3248 -0.2173 0.1462, -0.3248 -0.2168 0.1476, -0.3248 -0.2167 0.1479, -0.3248 -0.2165 0.1496, -0.3917 -0.1575 0.1417, -0.39 -0.1575 0.1419, -0.3883 -0.1575 0.1425, -0.3868 -0.1575 0.1434, -0.3856 -0.1575 0.1447, -0.3846 -0.1575 0.1462, -0.3839 -0.1575 0.1496, -0.3841 -0.1575 0.1479, -0.3358 -0.22 0.1425, -0.3356 -0.2186 0.1434, -0.3354 -0.2173 0.1447, -0.3352 -0.2164 0.1462, -0.3351 -0.2158 0.1479, -0.3351 -0.2156 0.1496, -0.34 -0.2143 0.1496, -0.3451 -0.2132 0.1479, -0.345 -0.213 0.1496, -0.3544 -0.2088 0.1479, -0.3543 -0.2086 0.1496, -0.3629 -0.2029 0.1479, -0.3628 -0.2027 0.1496, -0.3664 -0.1991 0.1496, -0.3702 -0.1956 0.1479, -0.37 -0.1954 0.1496, -0.3761 -0.1871 0.1479, -0.3759 -0.187 0.1496, -0.3805 -0.1777 0.1479, -0.383 -0.1677 0.1496, -0.3832 -0.1678 0.1479, -0.3816 -0.1727 0.1496, -0.3803 -0.1777 0.1496, -0.3837 -0.1679 0.1462, -0.381 -0.1779 0.1462, -0.3766 -0.1874 0.1462, -0.3706 -0.1959 0.1462, -0.3633 -0.2033 0.1462, -0.3547 -0.2093 0.1462, -0.3453 -0.2137 0.1462, -0.3847 -0.168 0.1447, -0.3819 -0.1783 0.1447, -0.3774 -0.1879 0.1447, -0.3714 -0.1965 0.1447, -0.3639 -0.204 0.1447, -0.3552 -0.2101 0.1447, -0.3456 -0.2146 0.1447, -0.3859 -0.1682 0.1434, -0.3831 -0.1787 0.1434, -0.3785 -0.1885 0.1434, -0.3723 -0.1973 0.1434, -0.3647 -0.205 0.1434, -0.3558 -0.2112 0.1434, -0.346 -0.2158 0.1434, -0.3874 -0.1685 0.1425, -0.3845 -0.1792 0.1425, -0.3798 -0.1892 0.1425, -0.3735 -0.1983 0.1425, -0.3656 -0.2061 0.1425, -0.3566 -0.2125 0.1425, -0.3465 -0.2172 0.1425, -0.389 -0.1688 0.1419, -0.386 -0.1798 0.1419, -0.3812 -0.1901 0.1419, -0.3747 -0.1994 0.1419, -0.3667 -0.2074 0.1419, -0.3574 -0.2139 0.1419, -0.3471 -0.2187 0.1419, -0.3361 -0.2217 0.1419, -0.3907 -0.1691 0.1417, -0.3877 -0.1804 0.1417, -0.3828 -0.1909 0.1417, -0.3761 -0.2005 0.1417, -0.3678 -0.2088 0.1417, -0.3583 -0.2154 0.1417, -0.3477 -0.2204 0.1417, -0.3364 -0.2234 0.1417
            ]
        }
        coordIndex [
            0,1,2,-1,3,4,5,-1,6,7,8,-1,8,7,9,-1,8,9,10,-1,10,9,11,-1,10,11,12,-1,12,11,13,-1,12,13,14,-1,14,13,15,-1,14,15,16,-1,16,15,5,-1,17,18,19,-1,19,18,20,-1,19,20,21,-1,21,20,22,-1,21,22,23,-1,23,22,24,-1,23,24,25,-1,25,24,26,-1,25,26,27,-1,27,26,2,-1,28,6,29,-1,29,6,8,-1,29,8,30,-1,30,8,10,-1,30,10,31,-1,31,10,12,-1,31,12,32,-1,32,12,14,-1,32,14,33,-1,33,14,16,-1,33,16,34,-1,34,16,35,-1,5,4,16,-1,16,4,36,-1,16,36,35,-1,37,3,38,-1,38,3,5,-1,38,5,39,-1,39,5,15,-1,39,15,40,-1,40,15,13,-1,40,13,41,-1,41,13,11,-1,41,11,42,-1,42,11,9,-1,42,9,43,-1,43,9,7,-1,43,44,42,-1,42,44,45,-1,42,45,41,-1,41,45,46,-1,41,46,40,-1,40,46,47,-1,40,47,39,-1,39,47,48,-1,39,48,38,-1,38,48,49,-1,38,49,37,-1,37,49,50,-1,44,17,45,-1,45,17,19,-1,45,19,46,-1,46,19,21,-1,46,21,47,-1,47,21,23,-1,47,23,48,-1,48,23,25,-1,48,25,49,-1,49,25,27,-1,49,27,50,-1,50,27,51,-1,2,1,27,-1,27,1,52,-1,27,52,51,-1,53,0,54,-1,54,0,2,-1,54,2,55,-1,55,2,26,-1,55,26,56,-1,56,26,24,-1,56,24,57,-1,57,24,22,-1,57,22,58,-1,58,22,20,-1,58,20,59,-1,59,20,18,-1,59,60,58,-1,58,60,61,-1,58,61,57,-1,57,61,62,-1,57,62,56,-1,56,62,63,-1,56,63,55,-1,55,63,64,-1,55,64,54,-1,54,64,65,-1,54,65,53,-1,53,65,66,-1,67,28,29,-1,67,29,68,-1,68,29,30,-1,68,30,69,-1,69,30,31,-1,69,31,70,-1,70,31,32,-1,70,32,71,-1,71,32,33,-1,71,33,72,-1,72,33,34,-1,72,34,73,-1,60,74,75,-1,60,75,61,-1,61,75,76,-1,61,76,62,-1,62,76,77,-1,62,77,63,-1,63,77,78,-1,63,78,64,-1,64,78,79,-1,64,79,65,-1,65,79,80,-1,65,80,66,-1,81,82,83,-1,84,85,86,-1,87,88,89,-1,89,88,90,-1,89,90,91,-1,91,90,92,-1,91,92,93,-1,93,92,94,-1,93,94,95,-1,95,94,96,-1,95,96,97,-1,97,96,86,-1,98,99,100,-1,100,99,101,-1,100,101,102,-1,102,101,103,-1,102,103,104,-1,104,103,105,-1,104,105,106,-1,106,105,107,-1,106,107,108,-1,108,107,83,-1,109,87,110,-1,110,87,89,-1,110,89,111,-1,111,89,91,-1,111,91,112,-1,112,91,93,-1,112,93,113,-1,113,93,95,-1,113,95,114,-1,114,95,97,-1,114,97,115,-1,115,97,116,-1,86,85,97,-1,97,85,117,-1,97,117,116,-1,118,84,119,-1,119,84,86,-1,119,86,120,-1,120,86,96,-1,120,96,121,-1,121,96,94,-1,121,94,122,-1,122,94,92,-1,122,92,123,-1,123,92,90,-1,123,90,124,-1,124,90,88,-1,124,125,123,-1,123,125,126,-1,123,126,122,-1,122,126,127,-1,122,127,121,-1,121,127,128,-1,121,128,120,-1,120,128,129,-1,120,129,119,-1,119,129,130,-1,119,130,118,-1,118,130,131,-1,125,98,126,-1,126,98,100,-1,126,100,127,-1,127,100,102,-1,127,102,128,-1,128,102,104,-1,128,104,129,-1,129,104,106,-1,129,106,130,-1,130,106,108,-1,130,108,131,-1,131,108,132,-1,83,82,108,-1,108,82,133,-1,108,133,132,-1,134,81,135,-1,135,81,83,-1,135,83,136,-1,136,83,107,-1,136,107,137,-1,137,107,105,-1,137,105,138,-1,138,105,103,-1,138,103,139,-1,139,103,101,-1,139,101,140,-1,140,101,99,-1,140,67,139,-1,139,67,68,-1,139,68,138,-1,138,68,69,-1,138,69,137,-1,137,69,70,-1,137,70,136,-1,136,70,71,-1,136,71,135,-1,135,71,72,-1,135,72,134,-1,134,72,73,-1,141,142,143,-1,144,145,146,-1,147,148,149,-1,149,148,150,-1,149,150,151,-1,151,150,152,-1,151,152,153,-1,153,152,154,-1,153,154,155,-1,155,154,156,-1,155,156,157,-1,157,156,146,-1,158,159,160,-1,160,159,161,-1,160,161,162,-1,162,161,163,-1,162,163,164,-1,164,163,165,-1,164,165,166,-1,166,165,167,-1,166,167,168,-1,168,167,143,-1,74,147,75,-1,75,147,149,-1,75,149,76,-1,76,149,151,-1,76,151,77,-1,77,151,153,-1,77,153,78,-1,78,153,155,-1,78,155,79,-1,79,155,157,-1,79,157,80,-1,80,157,169,-1,146,145,157,-1,157,145,170,-1,157,170,169,-1,171,144,172,-1,172,144,146,-1,172,146,173,-1,173,146,156,-1,173,156,174,-1,174,156,154,-1,174,154,175,-1,175,154,152,-1,175,152,176,-1,176,152,150,-1,176,150,177,-1,177,150,148,-1,177,178,176,-1,176,178,179,-1,176,179,175,-1,175,179,180,-1,175,180,174,-1,174,180,181,-1,174,181,173,-1,173,181,182,-1,173,182,172,-1,172,182,183,-1,172,183,171,-1,171,183,184,-1,178,158,179,-1,179,158,160,-1,179,160,180,-1,180,160,162,-1,180,162,181,-1,181,162,164,-1,181,164,182,-1,182,164,166,-1,182,166,183,-1,183,166,168,-1,183,168,184,-1,184,168,185,-1,143,142,168,-1,168,142,186,-1,168,186,185,-1,187,141,188,-1,188,141,143,-1,188,143,189,-1,189,143,167,-1,189,167,190,-1,190,167,165,-1,190,165,191,-1,191,165,163,-1,191,163,192,-1,192,163,161,-1,192,161,193,-1,193,161,159,-1,193,194,192,-1,192,194,195,-1,192,195,191,-1,191,195,196,-1,191,196,190,-1,190,196,197,-1,190,197,189,-1,189,197,198,-1,189,198,188,-1,188,198,199,-1,188,199,187,-1,187,199,200,-1,201,109,110,-1,201,110,202,-1,202,110,111,-1,202,111,203,-1,203,111,112,-1,203,112,204,-1,204,112,113,-1,204,113,205,-1,205,113,114,-1,205,114,206,-1,206,114,115,-1,206,115,207,-1,194,208,209,-1,194,209,195,-1,195,209,210,-1,195,210,196,-1,196,210,211,-1,196,211,197,-1,197,211,212,-1,197,212,198,-1,198,212,213,-1,198,213,199,-1,199,213,214,-1,199,214,200,-1,215,216,217,-1,218,219,220,-1,221,222,223,-1,223,222,224,-1,223,224,225,-1,225,224,226,-1,225,226,227,-1,227,226,228,-1,227,228,229,-1,229,228,230,-1,229,230,231,-1,231,230,220,-1,232,233,234,-1,234,233,235,-1,234,235,236,-1,236,235,237,-1,236,237,238,-1,238,237,239,-1,238,239,240,-1,240,239,241,-1,240,241,242,-1,242,241,217,-1,208,221,209,-1,209,221,223,-1,209,223,210,-1,210,223,225,-1,210,225,211,-1,211,225,227,-1,211,227,212,-1,212,227,229,-1,212,229,213,-1,213,229,231,-1,213,231,214,-1,214,231,243,-1,220,219,231,-1,231,219,244,-1,231,244,243,-1,245,218,246,-1,246,218,220,-1,246,220,247,-1,247,220,230,-1,247,230,248,-1,248,230,228,-1,248,228,249,-1,249,228,226,-1,249,226,250,-1,250,226,224,-1,250,224,251,-1,251,224,222,-1,251,252,250,-1,250,252,253,-1,250,253,249,-1,249,253,254,-1,249,254,248,-1,248,254,255,-1,248,255,247,-1,247,255,256,-1,247,256,246,-1,246,256,257,-1,246,257,245,-1,245,257,258,-1,252,232,253,-1,253,232,234,-1,253,234,254,-1,254,234,236,-1,254,236,255,-1,255,236,238,-1,255,238,256,-1,256,238,240,-1,256,240,257,-1,257,240,242,-1,257,242,258,-1,258,242,259,-1,217,216,242,-1,242,216,260,-1,242,260,259,-1,261,215,262,-1,262,215,217,-1,262,217,263,-1,263,217,241,-1,263,241,264,-1,264,241,239,-1,264,239,265,-1,265,239,237,-1,265,237,266,-1,266,237,235,-1,266,235,267,-1,267,235,233,-1,267,201,266,-1,266,201,202,-1,266,202,265,-1,265,202,203,-1,265,203,264,-1,264,203,204,-1,264,204,263,-1,263,204,205,-1,263,205,262,-1,262,205,206,-1,262,206,261,-1,261,206,207,-1,268,269,270,-1,270,269,271,-1,270,271,272,-1,271,273,272,-1,272,273,274,-1,272,274,275,-1,275,274,276,-1,275,276,277,-1,276,278,277,-1,277,278,279,-1,277,279,280,-1,280,279,281,-1,280,281,282,-1,282,281,283,-1,282,283,284,-1,285,286,287,-1,287,286,288,-1,287,288,289,-1,289,288,284,-1,289,284,290,-1,290,284,283,-1,286,291,288,-1,288,291,292,-1,288,292,284,-1,284,292,293,-1,284,293,282,-1,282,293,294,-1,282,294,280,-1,280,294,295,-1,280,295,277,-1,277,295,296,-1,277,296,275,-1,275,296,297,-1,275,297,272,-1,272,297,298,-1,272,298,270,-1,270,298,299,-1,270,299,268,-1,268,299,300,-1,291,301,292,-1,292,301,302,-1,292,302,293,-1,293,302,303,-1,293,303,294,-1,294,303,304,-1,294,304,295,-1,295,304,305,-1,295,305,296,-1,296,305,306,-1,296,306,297,-1,297,306,307,-1,297,307,298,-1,298,307,308,-1,298,308,299,-1,299,308,309,-1,299,309,300,-1,300,309,310,-1,301,311,302,-1,302,311,312,-1,302,312,303,-1,303,312,313,-1,303,313,304,-1,304,313,314,-1,304,314,305,-1,305,314,315,-1,305,315,306,-1,306,315,316,-1,306,316,307,-1,307,316,317,-1,307,317,308,-1,308,317,318,-1,308,318,309,-1,309,318,319,-1,309,319,310,-1,310,319,320,-1,311,321,312,-1,312,321,322,-1,312,322,313,-1,313,322,323,-1,313,323,314,-1,314,323,324,-1,314,324,315,-1,315,324,325,-1,315,325,316,-1,316,325,326,-1,316,326,317,-1,317,326,327,-1,317,327,318,-1,318,327,328,-1,318,328,319,-1,319,328,329,-1,319,329,320,-1,320,329,330,-1,321,331,322,-1,322,331,332,-1,322,332,323,-1,323,332,333,-1,323,333,324,-1,324,333,334,-1,324,334,325,-1,325,334,335,-1,325,335,326,-1,326,335,336,-1,326,336,327,-1,327,336,337,-1,327,337,328,-1,328,337,338,-1,328,338,329,-1,329,338,339,-1,329,339,330,-1,330,339,340,-1,341,331,342,-1,342,331,321,-1,342,321,343,-1,343,321,311,-1,343,311,344,-1,344,311,301,-1,344,301,345,-1,345,301,291,-1,345,291,346,-1,346,291,286,-1,346,286,347,-1,347,286,285,-1,340,348,330,-1,330,348,349,-1,330,349,320,-1,320,349,350,-1,320,350,310,-1,310,350,351,-1,310,351,300,-1,300,351,352,-1,300,352,268,-1,268,352,353,-1,268,353,269,-1,269,353,354,-1,355,346,347,-1,347,356,355,-1,355,356,357,-1,355,357,358,-1,358,357,359,-1,358,359,360,-1,360,359,361,-1,360,361,362,-1,361,363,362,-1,362,363,364,-1,362,364,365,-1,365,364,366,-1,365,366,367,-1,367,366,368,-1,367,368,369,-1,370,371,372,-1,372,371,373,-1,372,373,374,-1,374,373,369,-1,374,369,375,-1,375,369,368,-1,371,376,373,-1,373,376,377,-1,373,377,369,-1,369,377,378,-1,369,378,367,-1,367,378,379,-1,367,379,365,-1,365,379,380,-1,365,380,362,-1,362,380,381,-1,362,381,360,-1,360,381,382,-1,360,382,358,-1,358,382,383,-1,358,383,355,-1,355,383,384,-1,355,384,346,-1,346,384,345,-1,376,385,377,-1,377,385,386,-1,377,386,378,-1,378,386,387,-1,378,387,379,-1,379,387,388,-1,379,388,380,-1,380,388,389,-1,380,389,381,-1,381,389,390,-1,381,390,382,-1,382,390,391,-1,382,391,383,-1,383,391,392,-1,383,392,384,-1,384,392,393,-1,384,393,345,-1,345,393,344,-1,385,394,386,-1,386,394,395,-1,386,395,387,-1,387,395,396,-1,387,396,388,-1,388,396,397,-1,388,397,389,-1,389,397,398,-1,389,398,390,-1,390,398,399,-1,390,399,391,-1,391,399,400,-1,391,400,392,-1,392,400,401,-1,392,401,393,-1,393,401,402,-1,393,402,344,-1,344,402,343,-1,394,403,395,-1,395,403,404,-1,395,404,396,-1,396,404,405,-1,396,405,397,-1,397,405,406,-1,397,406,398,-1,398,406,407,-1,398,407,399,-1,399,407,408,-1,399,408,400,-1,400,408,409,-1,400,409,401,-1,401,409,410,-1,401,410,402,-1,402,410,411,-1,402,411,343,-1,343,411,342,-1,403,412,404,-1,404,412,413,-1,404,413,405,-1,405,413,414,-1,405,414,406,-1,406,414,415,-1,406,415,407,-1,407,415,416,-1,407,416,408,-1,408,416,417,-1,408,417,409,-1,409,417,418,-1,409,418,410,-1,410,418,419,-1,410,419,411,-1,411,419,420,-1,411,420,342,-1,342,420,341,-1,421,422,423,-1,424,425,426,-1,427,428,429,-1,430,431,432,-1,433,434,435,-1,436,437,438,-1,434,436,435,-1,435,436,438,-1,435,438,439,-1,438,440,439,-1,439,440,441,-1,439,441,442,-1,442,441,443,-1,442,443,444,-1,444,443,445,-1,444,445,446,-1,445,447,446,-1,446,447,448,-1,446,448,449,-1,449,448,450,-1,449,450,451,-1,354,353,452,-1,452,353,453,-1,452,453,454,-1,454,453,451,-1,454,451,455,-1,455,451,450,-1,353,352,453,-1,453,352,456,-1,453,456,451,-1,451,456,457,-1,451,457,449,-1,449,457,458,-1,449,458,446,-1,446,458,459,-1,446,459,444,-1,444,459,460,-1,444,460,442,-1,442,460,461,-1,442,461,439,-1,439,461,462,-1,439,462,435,-1,435,462,432,-1,435,432,433,-1,433,432,431,-1,352,351,456,-1,456,351,463,-1,456,463,457,-1,457,463,464,-1,457,464,458,-1,458,464,465,-1,458,465,459,-1,459,465,466,-1,459,466,460,-1,460,466,467,-1,460,467,461,-1,461,467,468,-1,461,468,462,-1,462,468,469,-1,462,469,432,-1,432,469,429,-1,432,429,430,-1,430,429,428,-1,351,350,463,-1,463,350,470,-1,463,470,464,-1,464,470,471,-1,464,471,465,-1,465,471,472,-1,465,472,466,-1,466,472,473,-1,466,473,467,-1,467,473,474,-1,467,474,468,-1,468,474,475,-1,468,475,469,-1,469,475,476,-1,469,476,429,-1,429,476,426,-1,429,426,427,-1,427,426,425,-1,350,349,470,-1,470,349,477,-1,470,477,471,-1,471,477,478,-1,471,478,472,-1,472,478,479,-1,472,479,473,-1,473,479,480,-1,473,480,474,-1,474,480,481,-1,474,481,475,-1,475,481,482,-1,475,482,476,-1,476,482,483,-1,476,483,426,-1,426,483,423,-1,426,423,424,-1,424,423,422,-1,349,348,477,-1,477,348,484,-1,477,484,478,-1,478,484,485,-1,478,485,479,-1,479,485,486,-1,479,486,480,-1,480,486,487,-1,480,487,481,-1,481,487,488,-1,481,488,482,-1,482,488,489,-1,482,489,483,-1,483,489,490,-1,483,490,423,-1,423,490,491,-1,423,491,421,-1,421,491,492,-1,493,494,412,-1,493,412,495,-1,495,412,403,-1,495,403,496,-1,496,403,497,-1,497,403,394,-1,497,394,498,-1,498,394,499,-1,499,394,385,-1,499,385,500,-1,500,385,376,-1,500,376,501,-1,501,376,502,-1,502,376,371,-1,502,371,503,-1,503,371,504,-1,504,371,370,-1,504,370,505,-1,492,506,421,-1,421,506,507,-1,421,507,422,-1,422,507,508,-1,422,508,424,-1,424,508,425,-1,425,508,509,-1,425,509,427,-1,510,511,433,-1,433,431,510,-1,510,431,430,-1,510,430,509,-1,509,430,428,-1,509,428,427,-1,512,437,513,-1,513,437,436,-1,513,436,511,-1,511,436,434,-1,511,434,433,-1,495,496,514,-1,497,498,515,-1,499,500,516,-1,501,502,517,-1,503,504,518,-1,518,504,505,-1,505,519,518,-1,518,519,520,-1,518,520,521,-1,521,520,522,-1,521,522,523,-1,523,522,524,-1,523,524,525,-1,524,526,525,-1,525,526,527,-1,525,527,528,-1,528,527,529,-1,528,529,530,-1,530,529,531,-1,530,531,532,-1,512,513,533,-1,533,513,534,-1,533,534,535,-1,535,534,532,-1,535,532,536,-1,536,532,531,-1,513,511,534,-1,534,511,537,-1,534,537,532,-1,532,537,538,-1,532,538,530,-1,530,538,539,-1,530,539,528,-1,528,539,540,-1,528,540,525,-1,525,540,541,-1,525,541,523,-1,523,541,542,-1,523,542,521,-1,521,542,543,-1,521,543,518,-1,518,543,517,-1,518,517,503,-1,503,517,502,-1,511,510,537,-1,537,510,544,-1,537,544,538,-1,538,544,545,-1,538,545,539,-1,539,545,546,-1,539,546,540,-1,540,546,547,-1,540,547,541,-1,541,547,548,-1,541,548,542,-1,542,548,549,-1,542,549,543,-1,543,549,550,-1,543,550,517,-1,517,550,516,-1,517,516,501,-1,501,516,500,-1,510,509,544,-1,544,509,551,-1,544,551,545,-1,545,551,552,-1,545,552,546,-1,546,552,553,-1,546,553,547,-1,547,553,554,-1,547,554,548,-1,548,554,555,-1,548,555,549,-1,549,555,556,-1,549,556,550,-1,550,556,557,-1,550,557,516,-1,516,557,515,-1,516,515,499,-1,499,515,498,-1,509,508,551,-1,551,508,558,-1,551,558,552,-1,552,558,559,-1,552,559,553,-1,553,559,560,-1,553,560,554,-1,554,560,561,-1,554,561,555,-1,555,561,562,-1,555,562,556,-1,556,562,563,-1,556,563,557,-1,557,563,564,-1,557,564,515,-1,515,564,514,-1,515,514,497,-1,497,514,496,-1,508,507,558,-1,558,507,565,-1,558,565,559,-1,559,565,566,-1,559,566,560,-1,560,566,567,-1,560,567,561,-1,561,567,568,-1,561,568,562,-1,562,568,569,-1,562,569,563,-1,563,569,570,-1,563,570,564,-1,564,570,571,-1,564,571,514,-1,514,571,572,-1,514,572,495,-1,495,572,493,-1,507,506,565,-1,565,506,573,-1,565,573,566,-1,566,573,574,-1,566,574,567,-1,567,574,575,-1,567,575,568,-1,568,575,576,-1,568,576,569,-1,569,576,577,-1,569,577,570,-1,570,577,578,-1,570,578,571,-1,571,578,579,-1,571,579,572,-1,572,579,580,-1,572,580,493,-1,493,580,494,-1,
        ]
    }
}
Shape{
    appearance Appearance {
        material  Material 	{
            diffuseColor 0.25098039215686274 0.25098039215686274 0.25098039215686274
            specularColor 0.12549019607843137 0.12549019607843137 0.12549019607843137
            ambientIntensity 0.251
            transparency 0.0
            shininess 0.5
        }
    }
    geometry IndexedFaceSet {
        ccw TRUE
        solid FALSE
        coord DEF co Coordinate {
            point [
                -0.4035 -0.2067 0.0039, -0.4017 -0.2067 0.0039, -0.4017 -0.2067 0.0197, -0.374 -0.235 0.0039, -0.374 -0.2362 0.0039, -0.374 -0.235 0.0197, -0.374 -0.2362 0.1417, -0.375 -0.2286 0.0197, -0.375 -0.2286 0.1417, -0.378 -0.2215 0.0197, -0.378 -0.2215 0.1417, -0.3827 -0.2153 0.0197, -0.3827 -0.2153 0.1417, -0.3888 -0.2106 0.0197, -0.3888 -0.2106 0.1417, -0.3959 -0.2077 0.0197, -0.3959 -0.2077 0.1417, -0.4035 -0.2067 0.1417, -0.374 0.2362 0.0039, -0.374 0.235 0.0039, -0.374 0.235 0.0197, -0.4017 0.2067 0.0039, -0.4035 0.2067 0.0039, -0.4017 0.2067 0.0197, -0.4035 0.2067 0.1417, -0.3959 0.2077 0.0197, -0.3959 0.2077 0.1417, -0.3888 0.2106 0.0197, -0.3888 0.2106 0.1417, -0.3827 0.2153 0.0197, -0.3827 0.2153 0.1417, -0.378 0.2215 0.0197, -0.378 0.2215 0.1417, -0.375 0.2286 0.0197, -0.375 0.2286 0.1417, -0.374 0.2362 0.1417, 0.4035 0.2067 0.0039, 0.4017 0.2067 0.0039, 0.4017 0.2067 0.0197, 0.374 0.235 0.0039, 0.374 0.2362 0.0039, 0.374 0.235 0.0197, 0.374 0.2362 0.1417, 0.375 0.2286 0.0197, 0.375 0.2286 0.1417, 0.378 0.2215 0.0197, 0.378 0.2215 0.1417, 0.3827 0.2153 0.0197, 0.3827 0.2153 0.1417, 0.3888 0.2106 0.0197, 0.3888 0.2106 0.1417, 0.3959 0.2077 0.0197, 0.3959 0.2077 0.1417, 0.4035 0.2067 0.1417, 0.374 -0.2362 0.0039, 0.374 -0.235 0.0039, 0.374 -0.235 0.0197, 0.4017 -0.2067 0.0039, 0.4035 -0.2067 0.0039, 0.4017 -0.2067 0.0197, 0.4035 -0.2067 0.1417, 0.397 -0.2074 0.0197, 0.397 -0.2074 0.1417, 0.3907 -0.2096 0.0197, 0.3907 -0.2096 0.1417, 0.3851 -0.2131 0.0197, 0.3851 -0.2131 0.1417, 0.3805 -0.2178 0.0197, 0.3805 -0.2178 0.1417, 0.3769 -0.2234 0.0197, 0.3769 -0.2234 0.1417, 0.3748 -0.2296 0.0197, 0.3748 -0.2296 0.1417, 0.374 -0.2362 0.1417
            ]
        }
        coordIndex [
            0,1,2,-1,3,4,5,-1,5,4,6,-1,5,6,7,-1,7,6,8,-1,7,8,9,-1,9,8,10,-1,9,10,11,-1,11,10,12,-1,11,12,13,-1,13,12,14,-1,13,14,15,-1,15,14,16,-1,15,16,2,-1,2,16,17,-1,2,17,0,-1,18,19,20,-1,21,22,23,-1,23,22,24,-1,23,24,25,-1,25,24,26,-1,25,26,27,-1,27,26,28,-1,27,28,29,-1,29,28,30,-1,29,30,31,-1,31,30,32,-1,31,32,33,-1,33,32,34,-1,33,34,20,-1,20,34,35,-1,20,35,18,-1,36,37,38,-1,39,40,41,-1,41,40,42,-1,41,42,43,-1,43,42,44,-1,43,44,45,-1,45,44,46,-1,45,46,47,-1,47,46,48,-1,47,48,49,-1,49,48,50,-1,49,50,51,-1,51,50,52,-1,51,52,38,-1,38,52,53,-1,38,53,36,-1,54,55,56,-1,57,58,59,-1,59,58,60,-1,59,60,61,-1,61,60,62,-1,61,62,63,-1,63,62,64,-1,63,64,65,-1,65,64,66,-1,65,66,67,-1,67,66,68,-1,67,68,69,-1,69,68,70,-1,69,70,71,-1,71,70,72,-1,71,72,56,-1,56,72,73,-1,56,73,54,-1,
        ]
    }
}
Shape{
    appearance Appearance {
        material  Material 	{
            diffuseColor 0.9686274509803922 0.8784313725490196 0.6
            specularColor 0.6784313725490196 0.615686274509804 0.4196078431372549
            ambientIntensity 0.8737
            transparency 0.0
            shininess 0.5
        }
    }
    geometry IndexedFaceSet {
        ccw TRUE
        solid FALSE
        coord DEF co Coordinate {
            point [
                -0.1378 -0.1969 0.0039, -0.1378 -0.1969 0.0, -0.1378 -0.0215 0.0039, -0.1378 0.1181 0.0, -0.1378 0.1181 0.0039, -0.315 -0.1969 0.0, -0.315 -0.1969 0.0039, -0.3543 0.1575 0.0, -0.3543 -0.1575 0.0, -0.3543 0.1575 0.0039, -0.3543 -0.1575 0.0039, -0.2165 0.1969 0.0, -0.315 0.1969 0.0, -0.2165 0.1969 0.0039, -0.315 0.1969 0.0039, -0.3769 0.2291 0.0, -0.376 0.2362 0.0, -0.4035 0.2087 0.0, -0.3964 0.2096 0.0, -0.4035 -0.2087 0.0, -0.3964 -0.2096 0.0, -0.3898 -0.2124 0.0, -0.3898 0.2124 0.0, -0.3841 0.2167 0.0, -0.3797 0.2224 0.0, -0.376 -0.2362 0.0, -0.3769 -0.2291 0.0, -0.3797 -0.2224 0.0, -0.3841 -0.2167 0.0, 0.1378 0.1969 0.0039, 0.1378 0.1969 0.0, 0.1378 -0.0215 0.0039, 0.1378 -0.1969 0.0, 0.1378 -0.1969 0.0039, 0.315 0.1969 0.0, 0.315 0.1969 0.0039, 0.3543 -0.1575 0.0, 0.3543 0.1575 0.0, 0.3543 -0.1575 0.0039, 0.3543 0.1575 0.0039, 0.315 -0.1969 0.0, 0.315 -0.1969 0.0039, 0.3769 -0.2291 0.0, 0.376 -0.2362 0.0, 0.4035 0.2087 0.0, 0.3964 0.2096 0.0, 0.3898 0.2124 0.0, 0.3797 -0.2224 0.0, 0.376 0.2362 0.0, 0.3769 0.2291 0.0, 0.3797 0.2224 0.0, 0.3841 0.2167 0.0, 0.4035 -0.2087 0.0, 0.3964 -0.2096 0.0, 0.3898 -0.2124 0.0, 0.3841 -0.2167 0.0
            ]
        }
        coordIndex [
            0,1,2,-1,2,1,3,-1,2,3,4,-1,5,1,6,-1,6,1,0,-1,7,8,9,-1,9,8,10,-1,11,12,13,-1,13,12,14,-1,3,11,4,-1,4,11,13,-1,15,16,12,-1,12,11,7,-1,7,11,3,-1,7,3,8,-1,8,3,1,-1,8,1,5,-1,7,17,18,-1,19,8,20,-1,20,8,21,-1,18,22,7,-1,7,22,23,-1,7,23,12,-1,12,23,24,-1,12,24,15,-1,25,26,5,-1,5,26,27,-1,5,27,8,-1,8,27,28,-1,8,28,21,-1,29,30,31,-1,31,30,32,-1,31,32,33,-1,34,30,35,-1,35,30,29,-1,36,37,38,-1,38,37,39,-1,32,40,33,-1,33,40,41,-1,37,30,34,-1,42,43,40,-1,44,37,45,-1,45,37,46,-1,42,40,47,-1,48,49,34,-1,34,49,50,-1,34,50,37,-1,37,50,51,-1,37,51,46,-1,52,53,36,-1,36,53,54,-1,36,54,55,-1,30,37,32,-1,32,37,36,-1,32,36,40,-1,40,36,55,-1,40,55,47,-1,
        ]
    }
}
Shape{
    appearance Appearance {
        material  Material 	{
            diffuseColor 0.0 0.0 0.0
            specularColor 0.0 0.0 0.0
            ambientIntensity 0.0
            transparency 0.0
            shininess 0.5
        }
    }
    geometry IndexedFaceSet {
        ccw TRUE
        solid FALSE
        coord DEF co Coordinate {
            point [
                -0.0813 0.0181 0.0043, -0.0966 -0.0212 0.0043, -0.0813 0.0181 0.0039, -0.0966 -0.0212 0.0039, -0.0909 -0.0212 0.0043, -0.0909 -0.0212 0.0039, -0.0869 -0.0102 0.0043, -0.0869 -0.0102 0.0039, -0.0706 -0.0102 0.0043, -0.0706 -0.0102 0.0039, -0.0669 -0.0212 0.0043, -0.0669 -0.0212 0.0039, -0.0611 -0.0212 0.0043, -0.0611 -0.0212 0.0039, -0.076 0.0181 0.0043, -0.076 0.0181 0.0039, -0.072 -0.0059 0.0043, -0.0851 -0.0059 0.0043, -0.0778 0.0106 0.0043, -0.0782 0.0119 0.0043, -0.0785 0.0133 0.0043, -0.0786 0.0133 0.0043, -0.0789 0.012 0.0043, -0.0792 0.0106 0.0043, -0.072 -0.0059 0.0039, -0.0851 -0.0059 0.0039, -0.0778 0.0106 0.0039, -0.0782 0.0119 0.0039, -0.0785 0.0133 0.0039, -0.0786 0.0133 0.0039, -0.0789 0.012 0.0039, -0.0792 0.0106 0.0039, -0.0373 -0.0212 0.0043, -0.0266 -0.0212 0.0043, -0.0373 -0.0212 0.0039, -0.0266 -0.0212 0.0039, -0.0266 0.0181 0.0043, -0.0266 0.0181 0.0039, -0.0377 0.0181 0.0043, -0.0377 0.0181 0.0039, -0.0582 -0.001 0.0043, -0.0582 -0.001 0.0039, -0.058 0.0027 0.0039, -0.058 0.0027 0.0043, -0.0569 0.0065 0.0039, -0.0569 0.0065 0.0043, -0.0551 0.0099 0.0039, -0.0551 0.0099 0.0043, -0.0523 0.013 0.0039, -0.0523 0.013 0.0043, -0.0522 0.013 0.0039, -0.0522 0.013 0.0043, -0.048 0.0159 0.0039, -0.048 0.0159 0.0043, -0.0433 0.0175 0.0039, -0.0433 0.0175 0.0043, -0.0421 -0.0208 0.0039, -0.0421 -0.0208 0.0043, -0.0467 -0.0194 0.0039, -0.0467 -0.0194 0.0043, -0.0508 -0.0171 0.0039, -0.0508 -0.0171 0.0043, -0.054 -0.014 0.0039, -0.054 -0.014 0.0043, -0.0563 -0.0104 0.0039, -0.0563 -0.0104 0.0043, -0.0577 -0.0063 0.0039, -0.0577 -0.0063 0.0043, -0.0503 0.0083 0.0043, -0.0484 0.0103 0.0043, -0.0455 0.0122 0.0043, -0.0423 0.0133 0.0043, -0.0376 0.0138 0.0043, -0.0318 0.0138 0.0043, -0.0318 -0.0169 0.0043, -0.0374 -0.0169 0.0043, -0.0416 -0.0165 0.0043, -0.0449 -0.0155 0.0043, -0.0476 -0.0139 0.0043, -0.0498 -0.0117 0.0043, -0.0514 -0.009 0.0043, -0.0526 -0.0053 0.0043, -0.053 -0.0012 0.0043, -0.0526 0.0028 0.0043, -0.0517 0.0059 0.0043, -0.0376 0.0138 0.0039, -0.0318 0.0138 0.0039, -0.0423 0.0133 0.0039, -0.0455 0.0122 0.0039, -0.0484 0.0103 0.0039, -0.0503 0.0083 0.0039, -0.0517 0.0059 0.0039, -0.0526 0.0028 0.0039, -0.053 -0.0012 0.0039, -0.0526 -0.0053 0.0039, -0.0514 -0.009 0.0039, -0.0498 -0.0117 0.0039, -0.0476 -0.0139 0.0039, -0.0449 -0.0155 0.0039, -0.0416 -0.0165 0.0039, -0.0374 -0.0169 0.0039, -0.0318 -0.0169 0.0039, -0.0189 -0.0169 0.0043, -0.0189 -0.0212 0.0043, -0.0189 -0.0169 0.0039, -0.0189 -0.0212 0.0039, 0.0023 -0.0212 0.0043, 0.0023 -0.0212 0.0039, 0.0023 0.0181 0.0043, 0.0023 0.0181 0.0039, -0.0179 0.0181 0.0043, -0.0179 0.0181 0.0039, -0.0179 0.0138 0.0043, -0.0179 0.0138 0.0039, -0.003 0.0138 0.0043, -0.003 0.0138 0.0039, -0.003 0.0009 0.0043, -0.003 0.0009 0.0039, -0.0169 0.0009 0.0043, -0.0169 0.0009 0.0039, -0.0169 -0.0035 0.0043, -0.0169 -0.0035 0.0039, -0.003 -0.0035 0.0043, -0.003 -0.0035 0.0039, -0.003 -0.0169 0.0043, -0.003 -0.0169 0.0039, 0.0099 -0.0149 0.0043, 0.0099 -0.0192 0.0043, 0.0099 -0.0149 0.0039, 0.0099 -0.0192 0.0039, 0.0141 -0.0209 0.0043, 0.0208 -0.0217 0.0043, 0.0208 -0.0217 0.0039, 0.0197 -0.0217 0.0039, 0.0197 -0.0217 0.0043, 0.0181 -0.0215 0.0039, 0.0141 -0.0209 0.0039, 0.0231 -0.0215 0.0039, 0.0256 -0.0212 0.0043, 0.0256 -0.0212 0.0039, 0.0294 -0.0199 0.0043, 0.0294 -0.0199 0.0039, 0.0326 -0.0179 0.0043, 0.0326 -0.0179 0.0039, 0.0356 -0.0148 0.0043, 0.0356 -0.0148 0.0039, 0.0377 -0.011 0.0043, 0.0377 -0.011 0.0039, 0.0388 -0.0068 0.0043, 0.0388 -0.0068 0.0039, 0.0392 -0.0023 0.0043, 0.0392 -0.0023 0.0039, 0.0192 0.0186 0.0043, 0.0192 0.0186 0.0039, 0.0232 0.0183 0.0039, 0.0232 0.0183 0.0043, 0.0275 0.017 0.0039, 0.0275 0.017 0.0043, 0.0313 0.0149 0.0039, 0.0313 0.0149 0.0043, 0.0348 0.0115 0.0039, 0.0348 0.0115 0.0043, 0.0371 0.0078 0.0039, 0.0371 0.0078 0.0043, 0.0387 0.0033 0.0039, 0.0387 0.0033 0.0043, 0.0099 0.0171 0.0043, 0.0099 0.0171 0.0039, 0.0145 0.0183 0.0039, 0.0145 0.0183 0.0043, 0.0099 0.0118 0.0043, 0.0099 0.0118 0.0039, 0.0192 0.0143 0.0043, 0.0192 0.0143 0.0039, 0.0144 0.0137 0.0039, 0.0144 0.0137 0.0043, 0.0339 -0.002 0.0043, 0.0339 -0.002 0.0039, 0.0338 0.0011 0.0039, 0.0338 0.0011 0.0043, 0.0327 0.0053 0.0039, 0.0327 0.0053 0.0043, 0.0311 0.0084 0.0039, 0.0311 0.0084 0.0043, 0.0287 0.011 0.0039, 0.0287 0.011 0.0043, 0.026 0.0128 0.0039, 0.026 0.0128 0.0043, 0.023 0.0139 0.0039, 0.023 0.0139 0.0043, 0.02 -0.0174 0.0043, 0.02 -0.0174 0.0039, 0.0237 -0.017 0.0039, 0.0237 -0.017 0.0043, 0.0266 -0.0159 0.0039, 0.0266 -0.0159 0.0043, 0.029 -0.0143 0.0039, 0.029 -0.0143 0.0043, 0.0308 -0.0123 0.0039, 0.0308 -0.0123 0.0043, 0.0325 -0.0096 0.0039, 0.0325 -0.0096 0.0043, 0.0335 -0.0062 0.0039, 0.0335 -0.0062 0.0043, 0.0106 -0.0153 0.0039, 0.0106 -0.0153 0.0043, 0.0148 -0.0168 0.0039, 0.0148 -0.0168 0.0043, 0.0426 -0.0169 0.0043, 0.0426 -0.0212 0.0043, 0.0426 -0.0169 0.0039, 0.0426 -0.0212 0.0039, 0.0628 -0.0212 0.0043, 0.0628 -0.0212 0.0039, 0.0628 0.0181 0.0043, 0.0628 0.0181 0.0039, 0.0575 0.0181 0.0043, 0.0575 0.0181 0.0039, 0.0575 -0.0169 0.0043, 0.0575 -0.0169 0.0039
            ]
        }
        coordIndex [
            0,1,2,-1,2,1,3,-1,1,4,3,-1,3,4,5,-1,4,6,5,-1,5,6,7,-1,6,8,7,-1,7,8,9,-1,8,10,9,-1,9,10,11,-1,10,12,11,-1,11,12,13,-1,12,14,13,-1,13,14,15,-1,14,0,15,-1,15,0,2,-1,16,8,17,-1,17,8,6,-1,18,14,16,-1,16,14,12,-1,16,12,8,-1,8,12,10,-1,18,19,14,-1,14,19,20,-1,14,20,0,-1,0,20,21,-1,0,21,22,-1,22,23,0,-1,0,23,17,-1,0,17,1,-1,1,17,6,-1,1,6,4,-1,16,17,24,-1,24,17,25,-1,18,16,26,-1,26,16,24,-1,18,26,27,-1,18,27,19,-1,19,27,28,-1,19,28,20,-1,21,20,29,-1,29,20,28,-1,21,29,30,-1,21,30,22,-1,22,30,31,-1,22,31,23,-1,17,23,25,-1,25,23,31,-1,32,33,34,-1,34,33,35,-1,33,36,35,-1,35,36,37,-1,36,38,37,-1,37,38,39,-1,40,41,42,-1,40,42,43,-1,43,42,44,-1,43,44,45,-1,45,44,46,-1,45,46,47,-1,47,46,48,-1,47,48,49,-1,49,48,50,-1,49,50,51,-1,51,50,52,-1,51,52,53,-1,53,52,54,-1,53,54,55,-1,55,54,39,-1,55,39,38,-1,32,34,56,-1,32,56,57,-1,57,56,58,-1,57,58,59,-1,59,58,60,-1,59,60,61,-1,61,60,62,-1,61,62,63,-1,63,62,64,-1,63,64,65,-1,65,64,66,-1,65,66,67,-1,67,66,41,-1,67,41,40,-1,45,47,68,-1,68,47,49,-1,68,49,69,-1,69,49,51,-1,69,51,70,-1,70,51,53,-1,70,53,71,-1,71,53,55,-1,71,55,72,-1,72,55,38,-1,72,38,73,-1,73,38,36,-1,73,36,74,-1,74,36,33,-1,74,33,75,-1,75,33,32,-1,75,32,76,-1,76,32,57,-1,76,57,77,-1,77,57,59,-1,77,59,78,-1,78,59,61,-1,78,61,79,-1,79,61,63,-1,79,63,80,-1,80,63,65,-1,80,65,81,-1,81,65,67,-1,81,67,82,-1,82,67,40,-1,82,40,83,-1,83,40,43,-1,83,43,84,-1,84,43,45,-1,84,45,68,-1,72,73,85,-1,85,73,86,-1,72,85,87,-1,72,87,71,-1,71,87,88,-1,71,88,70,-1,70,88,89,-1,70,89,69,-1,69,89,90,-1,69,90,68,-1,68,90,91,-1,68,91,84,-1,84,91,92,-1,84,92,83,-1,83,92,93,-1,83,93,82,-1,82,93,94,-1,82,94,81,-1,81,94,95,-1,81,95,80,-1,80,95,96,-1,80,96,79,-1,79,96,97,-1,79,97,78,-1,78,97,98,-1,78,98,77,-1,77,98,99,-1,77,99,76,-1,76,99,100,-1,76,100,75,-1,74,75,101,-1,101,75,100,-1,73,74,86,-1,86,74,101,-1,102,103,104,-1,104,103,105,-1,103,106,105,-1,105,106,107,-1,106,108,107,-1,107,108,109,-1,108,110,109,-1,109,110,111,-1,110,112,111,-1,111,112,113,-1,112,114,113,-1,113,114,115,-1,114,116,115,-1,115,116,117,-1,116,118,117,-1,117,118,119,-1,118,120,119,-1,119,120,121,-1,120,122,121,-1,121,122,123,-1,122,124,123,-1,123,124,125,-1,124,102,125,-1,125,102,104,-1,106,103,102,-1,102,124,106,-1,106,124,122,-1,106,122,108,-1,112,110,114,-1,114,110,108,-1,114,108,116,-1,116,108,122,-1,116,122,118,-1,118,122,120,-1,126,127,128,-1,128,127,129,-1,129,127,130,-1,131,132,133,-1,131,133,134,-1,134,133,135,-1,134,135,130,-1,130,135,136,-1,130,136,129,-1,132,131,137,-1,137,131,138,-1,137,138,139,-1,139,138,140,-1,139,140,141,-1,141,140,142,-1,141,142,143,-1,143,142,144,-1,143,144,145,-1,145,144,146,-1,145,146,147,-1,147,146,148,-1,147,148,149,-1,149,148,150,-1,149,150,151,-1,152,153,154,-1,152,154,155,-1,155,154,156,-1,155,156,157,-1,157,156,158,-1,157,158,159,-1,159,158,160,-1,159,160,161,-1,161,160,162,-1,161,162,163,-1,163,162,164,-1,163,164,165,-1,165,164,151,-1,165,151,150,-1,166,167,168,-1,166,168,169,-1,169,168,153,-1,169,153,152,-1,166,170,167,-1,167,170,171,-1,172,173,174,-1,172,174,175,-1,175,174,171,-1,175,171,170,-1,176,177,178,-1,176,178,179,-1,179,178,180,-1,179,180,181,-1,181,180,182,-1,181,182,183,-1,183,182,184,-1,183,184,185,-1,185,184,186,-1,185,186,187,-1,187,186,188,-1,187,188,189,-1,189,188,173,-1,189,173,172,-1,190,191,192,-1,190,192,193,-1,193,192,194,-1,193,194,195,-1,195,194,196,-1,195,196,197,-1,197,196,198,-1,197,198,199,-1,199,198,200,-1,199,200,201,-1,201,200,202,-1,201,202,203,-1,203,202,177,-1,203,177,176,-1,126,128,204,-1,126,204,205,-1,205,204,206,-1,205,206,207,-1,207,206,191,-1,207,191,190,-1,193,131,190,-1,190,131,134,-1,190,134,207,-1,207,134,130,-1,207,130,205,-1,205,130,127,-1,205,127,126,-1,170,166,175,-1,175,166,169,-1,175,169,172,-1,172,169,152,-1,172,152,189,-1,189,152,155,-1,189,155,187,-1,187,155,157,-1,187,157,185,-1,185,157,159,-1,185,159,183,-1,183,159,161,-1,183,161,181,-1,181,161,163,-1,181,163,179,-1,179,163,165,-1,179,165,176,-1,176,165,150,-1,176,150,203,-1,203,150,148,-1,203,148,201,-1,201,148,146,-1,201,146,199,-1,199,146,144,-1,199,144,197,-1,197,144,142,-1,197,142,195,-1,195,142,140,-1,195,140,193,-1,193,140,138,-1,193,138,131,-1,208,209,210,-1,210,209,211,-1,209,212,211,-1,211,212,213,-1,212,214,213,-1,213,214,215,-1,214,216,215,-1,215,216,217,-1,216,218,217,-1,217,218,219,-1,218,208,219,-1,219,208,210,-1,216,214,218,-1,218,214,212,-1,218,212,208,-1,208,212,209,-1,
        ]
    }
}
Shape{
    appearance Appearance {
        material  Material 	{
            diffuseColor 0.25098039215686274 0.25098039215686274 0.25098039215686274
            specularColor 0.12549019607843137 0.12549019607843137 0.12549019607843137
            ambientIntensity 0.251
            transparency 0.0
            shininess 0.5
        }
    }
    geometry IndexedFaceSet {
        ccw TRUE
        solid FALSE
        coord DEF co Coordinate {
            point [
                -0.072 -0.0059 0.0039, -0.0851 -0.0059 0.0039, -0.0778 0.0106 0.0039, -0.0792 0.0106 0.0039, -0.0782 0.0119 0.0039, -0.0789 0.012 0.0039, -0.0785 0.0133 0.0039, -0.0786 0.0133 0.0039, -0.0318 0.0138 0.0039, -0.0318 -0.0169 0.0039, -0.0376 0.0138 0.0039, -0.0374 -0.0169 0.0039, -0.0416 -0.0165 0.0039, -0.053 -0.0012 0.0039, -0.0526 0.0028 0.0039, -0.0517 0.0059 0.0039, -0.0423 0.0133 0.0039, -0.0449 -0.0155 0.0039, -0.0476 -0.0139 0.0039, -0.0498 -0.0117 0.0039, -0.0514 -0.009 0.0039, -0.0526 -0.0053 0.0039, -0.0503 0.0083 0.0039, -0.0484 0.0103 0.0039, -0.0455 0.0122 0.0039
            ]
        }
        coordIndex [
            0,1,2,-1,2,1,3,-1,2,3,4,-1,4,3,5,-1,4,5,6,-1,6,5,7,-1,8,9,10,-1,10,9,11,-1,10,11,12,-1,13,14,10,-1,10,14,15,-1,10,15,16,-1,12,17,10,-1,10,17,18,-1,10,18,19,-1,19,20,10,-1,10,20,21,-1,10,21,13,-1,22,23,15,-1,15,23,24,-1,15,24,16,-1,
        ]
    }
}
Shape{
    appearance Appearance {
        material  Material 	{
            diffuseColor 0.9686274509803922 0.8784313725490196 0.6
            specularColor 0.6784313725490196 0.615686274509804 0.4196078431372549
            ambientIntensity 0.8737
            transparency 0.0
            shininess 0.5
        }
    }
    geometry IndexedFaceSet {
        ccw TRUE
        solid FALSE
        coord DEF co Coordinate {
            point [
                0.376 0.2362 0.0197, 0.374 0.235 0.0197, 0.3769 0.2291 0.0197, 0.375 0.2286 0.0197, 0.3797 0.2224 0.0197, 0.378 0.2215 0.0197, 0.3841 0.2167 0.0197, 0.3827 0.2153 0.0197, 0.3898 0.2124 0.0197, 0.3888 0.2106 0.0197, 0.3964 0.2096 0.0197, 0.3959 0.2077 0.0197, 0.4035 0.2087 0.0197, 0.4017 0.2067 0.0197, 0.374 0.235 0.0039, 0.376 0.2362 0.0, 0.315 0.1969 0.0039, 0.315 0.1969 0.0, 0.3543 0.1575 0.0039, 0.3543 0.1575 0.0, 0.4017 0.2067 0.0039, 0.4035 0.2087 0.0, 0.3964 0.2096 0.0, 0.3898 0.2124 0.0, 0.3841 0.2167 0.0, 0.3797 0.2224 0.0, 0.3769 0.2291 0.0, -0.4035 0.2087 0.0197, -0.4017 0.2067 0.0197, -0.3964 0.2096 0.0197, -0.3959 0.2077 0.0197, -0.3898 0.2124 0.0197, -0.3888 0.2106 0.0197, -0.3841 0.2167 0.0197, -0.3827 0.2153 0.0197, -0.3797 0.2224 0.0197, -0.378 0.2215 0.0197, -0.3769 0.2291 0.0197, -0.375 0.2286 0.0197, -0.376 0.2362 0.0197, -0.374 0.235 0.0197, -0.4017 0.2067 0.0039, -0.4035 0.2087 0.0, -0.3543 0.1575 0.0039, -0.3543 0.1575 0.0, -0.315 0.1969 0.0039, -0.315 0.1969 0.0, -0.374 0.235 0.0039, -0.376 0.2362 0.0, -0.3769 0.2291 0.0, -0.3797 0.2224 0.0, -0.3841 0.2167 0.0, -0.3898 0.2124 0.0, -0.3964 0.2096 0.0, 0.4035 -0.2087 0.0197, 0.4017 -0.2067 0.0197, 0.3964 -0.2096 0.0197, 0.397 -0.2074 0.0197, 0.3898 -0.2124 0.0197, 0.3907 -0.2096 0.0197, 0.3841 -0.2167 0.0197, 0.374 -0.235 0.0197, 0.376 -0.2362 0.0197, 0.3748 -0.2296 0.0197, 0.3769 -0.2291 0.0197, 0.3769 -0.2234 0.0197, 0.3797 -0.2224 0.0197, 0.3805 -0.2178 0.0197, 0.3851 -0.2131 0.0197, 0.315 -0.1969 0.0039, 0.315 -0.1969 0.0, 0.374 -0.235 0.0039, 0.376 -0.2362 0.0, 0.4017 -0.2067 0.0039, 0.4035 -0.2087 0.0, 0.3543 -0.1575 0.0039, 0.3543 -0.1575 0.0, 0.3769 -0.2291 0.0, 0.3797 -0.2224 0.0, 0.3841 -0.2167 0.0, 0.3898 -0.2124 0.0, 0.3964 -0.2096 0.0, -0.376 -0.2362 0.0197, -0.374 -0.235 0.0197, -0.3769 -0.2291 0.0197, -0.375 -0.2286 0.0197, -0.3797 -0.2224 0.0197, -0.378 -0.2215 0.0197, -0.3841 -0.2167 0.0197, -0.3827 -0.2153 0.0197, -0.3898 -0.2124 0.0197, -0.3888 -0.2106 0.0197, -0.3964 -0.2096 0.0197, -0.3959 -0.2077 0.0197, -0.4035 -0.2087 0.0197, -0.4017 -0.2067 0.0197, -0.374 -0.235 0.0039, -0.376 -0.2362 0.0, -0.315 -0.1969 0.0039, -0.315 -0.1969 0.0, -0.3543 -0.1575 0.0039, -0.3543 -0.1575 0.0, -0.4017 -0.2067 0.0039, -0.4035 -0.2087 0.0, -0.3964 -0.2096 0.0, -0.3898 -0.2124 0.0, -0.3841 -0.2167 0.0, -0.3797 -0.2224 0.0, -0.3769 -0.2291 0.0
            ]
        }
        coordIndex [
            0,1,2,-1,2,1,3,-1,2,3,4,-1,4,3,5,-1,4,5,6,-1,6,5,7,-1,6,7,8,-1,8,7,9,-1,8,9,10,-1,10,9,11,-1,10,11,12,-1,12,11,13,-1,1,0,14,-1,14,0,15,-1,14,15,16,-1,16,15,17,-1,18,19,20,-1,20,19,21,-1,20,21,13,-1,13,21,12,-1,12,21,10,-1,10,21,22,-1,10,22,8,-1,8,22,23,-1,8,23,6,-1,6,23,24,-1,6,24,4,-1,4,24,25,-1,4,25,2,-1,2,25,26,-1,2,26,0,-1,0,26,15,-1,27,28,29,-1,29,28,30,-1,29,30,31,-1,31,30,32,-1,31,32,33,-1,33,32,34,-1,33,34,35,-1,35,34,36,-1,35,36,37,-1,37,36,38,-1,37,38,39,-1,39,38,40,-1,28,27,41,-1,41,27,42,-1,41,42,43,-1,43,42,44,-1,45,46,47,-1,47,46,48,-1,47,48,40,-1,40,48,39,-1,39,48,37,-1,37,48,49,-1,37,49,35,-1,35,49,50,-1,35,50,33,-1,33,50,51,-1,33,51,31,-1,31,51,52,-1,31,52,29,-1,29,52,53,-1,29,53,27,-1,27,53,42,-1,54,55,56,-1,56,55,57,-1,56,57,58,-1,58,57,59,-1,58,59,60,-1,61,62,63,-1,63,62,64,-1,63,64,65,-1,65,64,66,-1,65,66,67,-1,67,66,60,-1,67,60,68,-1,68,60,59,-1,69,70,71,-1,71,70,72,-1,71,72,61,-1,61,72,62,-1,55,54,73,-1,73,54,74,-1,73,74,75,-1,75,74,76,-1,62,72,64,-1,64,72,77,-1,64,77,66,-1,66,77,78,-1,66,78,60,-1,60,78,79,-1,60,79,58,-1,58,79,80,-1,58,80,56,-1,56,80,81,-1,56,81,54,-1,54,81,74,-1,82,83,84,-1,84,83,85,-1,84,85,86,-1,86,85,87,-1,86,87,88,-1,88,87,89,-1,88,89,90,-1,90,89,91,-1,90,91,92,-1,92,91,93,-1,92,93,94,-1,94,93,95,-1,83,82,96,-1,96,82,97,-1,96,97,98,-1,98,97,99,-1,100,101,102,-1,102,101,103,-1,102,103,95,-1,95,103,94,-1,94,103,92,-1,92,103,104,-1,92,104,90,-1,90,104,105,-1,90,105,88,-1,88,105,106,-1,88,106,86,-1,86,106,107,-1,86,107,84,-1,84,107,108,-1,84,108,82,-1,82,108,97,-1,
        ]
    }
}